<svg xmlns="http://www.w3.org/2000/svg" xmlns:xlink="http://www.w3.org/1999/xlink" width="100" zoomAndPan="magnify" viewBox="0 0 75 44.999999" height="60" preserveAspectRatio="xMidYMid meet" version="1.0"><defs><g/><clipPath id="686a175d05"><path d="M 26.652344 17.363281 L 36.308594 17.363281 L 36.308594 27.113281 L 26.652344 27.113281 Z M 26.652344 17.363281 " clip-rule="nonzero"/></clipPath><clipPath id="1ebb67d0cf"><path d="M 21.46875 14.066406 L 32.71875 14.066406 L 32.71875 25.316406 L 21.46875 25.316406 Z M 21.46875 14.066406 " clip-rule="nonzero"/></clipPath><clipPath id="77ff76d60c"><path d="M 22.117188 14.914062 L 31.867188 14.914062 L 31.867188 24.664062 L 22.117188 24.664062 Z M 22.117188 14.914062 " clip-rule="nonzero"/></clipPath><clipPath id="3a7634aed2"><path d="M 27.074219 9.269531 L 38.289062 9.269531 L 38.289062 20.519531 L 27.074219 20.519531 Z M 27.074219 9.269531 " clip-rule="nonzero"/></clipPath><clipPath id="a88f64a02d"><path d="M 27.855469 9.992188 L 37.511719 9.992188 L 37.511719 19.742188 L 27.855469 19.742188 Z M 27.855469 9.992188 " clip-rule="nonzero"/></clipPath></defs><g clip-path="url(#686a175d05)"><path fill="#6a4c93" d="M 31.480469 17.363281 C 34.199219 17.363281 36.402344 19.566406 36.402344 22.285156 L 36.402344 27.207031 L 31.480469 27.207031 C 28.761719 27.207031 26.558594 25 26.558594 22.285156 C 26.558594 19.566406 28.761719 17.363281 31.480469 17.363281 " fill-opacity="1" fill-rule="nonzero"/></g><g clip-path="url(#1ebb67d0cf)"><path fill="#ffffff" d="M 27.113281 14.066406 C 23.996094 14.066406 21.46875 16.59375 21.46875 19.710938 L 21.46875 25.351562 L 27.113281 25.351562 C 30.230469 25.351562 32.753906 22.824219 32.753906 19.710938 C 32.753906 16.59375 30.230469 14.066406 27.113281 14.066406 " fill-opacity="1" fill-rule="nonzero"/></g><g clip-path="url(#77ff76d60c)"><path fill="#ff595e" d="M 27.039062 14.914062 C 24.320312 14.914062 22.117188 17.117188 22.117188 19.835938 L 22.117188 24.757812 L 27.039062 24.757812 C 29.757812 24.757812 31.960938 22.554688 31.960938 19.835938 C 31.960938 17.117188 29.757812 14.914062 27.039062 14.914062 " fill-opacity="1" fill-rule="nonzero"/></g><g clip-path="url(#3a7634aed2)"><path fill="#ffffff" d="M 32.679688 9.269531 C 35.796875 9.269531 38.324219 11.796875 38.324219 14.914062 L 38.324219 20.554688 L 32.679688 20.554688 C 29.566406 20.554688 27.039062 18.027344 27.039062 14.914062 C 27.039062 11.796875 29.566406 9.269531 32.679688 9.269531 " fill-opacity="1" fill-rule="nonzero"/></g><g clip-path="url(#a88f64a02d)"><path fill="#ffb703" d="M 32.683594 9.992188 C 35.402344 9.992188 37.605469 12.195312 37.605469 14.914062 L 37.605469 19.835938 L 32.683594 19.835938 C 29.964844 19.835938 27.761719 17.632812 27.761719 14.914062 C 27.761719 12.195312 29.964844 9.992188 32.683594 9.992188 " fill-opacity="1" fill-rule="nonzero"/></g><g fill="#000000" fill-opacity="1"><g transform="translate(1.729583, 22.467585)"><g><path d="M 4.703125 -6.765625 L 6.78125 -6.765625 L 6.78125 -6.484375 C 6.507812 -6.296875 6.25 -6.164062 6 -6.09375 L 6 0.109375 L 5.453125 0.109375 L 1.9375 -5.203125 L 1.5625 -5.953125 L 1.53125 -5.953125 L 1.625 -5.203125 L 1.625 -0.625 C 1.882812 -0.550781 2.128906 -0.4375 2.359375 -0.28125 L 2.359375 0 L 0.28125 0 L 0.28125 -0.28125 C 0.394531 -0.351562 0.515625 -0.414062 0.640625 -0.46875 C 0.773438 -0.519531 0.921875 -0.570312 1.078125 -0.625 L 1.078125 -6.15625 C 0.941406 -6.207031 0.8125 -6.257812 0.6875 -6.3125 C 0.5625 -6.375 0.445312 -6.429688 0.34375 -6.484375 L 0.34375 -6.765625 L 1.96875 -6.765625 L 5.015625 -2.171875 L 5.453125 -1.34375 L 5.5 -1.34375 L 5.453125 -2.171875 L 5.453125 -6.09375 C 5.316406 -6.15625 5.179688 -6.21875 5.046875 -6.28125 C 4.921875 -6.34375 4.804688 -6.410156 4.703125 -6.484375 Z M 4.703125 -6.765625 "/></g></g></g><g fill="#000000" fill-opacity="1"><g transform="translate(8.798843, 22.467585)"><g><path d="M 4.3125 -0.671875 C 4.257812 -0.566406 4.175781 -0.460938 4.0625 -0.359375 C 3.957031 -0.265625 3.832031 -0.179688 3.6875 -0.109375 C 3.539062 -0.046875 3.382812 0.00390625 3.21875 0.046875 C 3.050781 0.0859375 2.882812 0.109375 2.71875 0.109375 C 2.332031 0.109375 1.992188 0.0507812 1.703125 -0.0625 C 1.421875 -0.175781 1.179688 -0.34375 0.984375 -0.5625 C 0.785156 -0.789062 0.632812 -1.054688 0.53125 -1.359375 C 0.4375 -1.671875 0.390625 -2.019531 0.390625 -2.40625 C 0.390625 -3.238281 0.578125 -3.867188 0.953125 -4.296875 C 1.335938 -4.722656 1.878906 -4.9375 2.578125 -4.9375 C 2.804688 -4.9375 3.03125 -4.90625 3.25 -4.84375 C 3.46875 -4.789062 3.660156 -4.691406 3.828125 -4.546875 C 3.992188 -4.398438 4.128906 -4.207031 4.234375 -3.96875 C 4.347656 -3.738281 4.40625 -3.453125 4.40625 -3.109375 C 4.40625 -2.992188 4.398438 -2.878906 4.390625 -2.765625 C 4.378906 -2.660156 4.359375 -2.539062 4.328125 -2.40625 L 1.328125 -2.40625 C 1.328125 -2.144531 1.359375 -1.894531 1.421875 -1.65625 C 1.492188 -1.414062 1.597656 -1.207031 1.734375 -1.03125 C 1.867188 -0.863281 2.035156 -0.726562 2.234375 -0.625 C 2.441406 -0.53125 2.6875 -0.484375 2.96875 -0.484375 C 3.1875 -0.484375 3.410156 -0.515625 3.640625 -0.578125 C 3.878906 -0.640625 4.054688 -0.722656 4.171875 -0.828125 Z M 2.546875 -4.515625 C 2.171875 -4.515625 1.882812 -4.390625 1.6875 -4.140625 C 1.5 -3.898438 1.390625 -3.46875 1.359375 -2.84375 L 3.46875 -2.84375 C 3.476562 -2.894531 3.484375 -2.945312 3.484375 -3 C 3.492188 -3.0625 3.5 -3.117188 3.5 -3.171875 C 3.5 -3.578125 3.421875 -3.898438 3.265625 -4.140625 C 3.109375 -4.390625 2.867188 -4.515625 2.546875 -4.515625 Z M 2.546875 -4.515625 "/></g></g></g><g fill="#000000" fill-opacity="1"><g transform="translate(13.656545, 22.467585)"><g><path d="M 1.9375 0.109375 L 0.421875 -4.34375 C 0.328125 -4.375 0.234375 -4.40625 0.140625 -4.4375 C 0.0546875 -4.476562 -0.0195312 -4.523438 -0.09375 -4.578125 L -0.09375 -4.828125 L 1.90625 -4.828125 L 1.90625 -4.59375 C 1.820312 -4.539062 1.734375 -4.492188 1.640625 -4.453125 C 1.546875 -4.410156 1.453125 -4.375 1.359375 -4.34375 L 2.203125 -1.53125 L 2.328125 -0.828125 L 2.34375 -0.828125 L 2.484375 -1.546875 L 3.53125 -4.734375 L 3.828125 -4.828125 L 4.9375 -1.53125 L 5.109375 -0.828125 L 5.125 -0.828125 L 5.265625 -1.53125 L 6.015625 -4.34375 C 5.941406 -4.351562 5.859375 -4.378906 5.765625 -4.421875 C 5.671875 -4.460938 5.578125 -4.515625 5.484375 -4.578125 L 5.484375 -4.828125 L 7.125 -4.828125 L 7.125 -4.578125 C 6.988281 -4.484375 6.804688 -4.40625 6.578125 -4.34375 L 5.203125 0 L 4.6875 0.109375 L 3.734375 -2.609375 L 3.546875 -3.421875 L 3.53125 -3.421875 L 3.296875 -2.609375 L 2.4375 0 Z M 1.9375 0.109375 "/></g></g></g><g fill="#000000" fill-opacity="1"><g transform="translate(38.742596, 22.467585)"><g><path d="M 5.265625 -6.234375 C 5.109375 -6.265625 4.960938 -6.300781 4.828125 -6.34375 C 4.691406 -6.382812 4.5625 -6.429688 4.4375 -6.484375 L 4.4375 -6.765625 L 6.609375 -6.765625 L 6.609375 -6.484375 C 6.421875 -6.378906 6.1875 -6.296875 5.90625 -6.234375 L 3.734375 0 L 3.203125 0.109375 L 0.734375 -6.234375 C 0.609375 -6.265625 0.484375 -6.300781 0.359375 -6.34375 C 0.234375 -6.382812 0.113281 -6.429688 0 -6.484375 L 0 -6.765625 L 2.5625 -6.765625 L 2.5625 -6.484375 C 2.445312 -6.429688 2.320312 -6.382812 2.1875 -6.34375 C 2.050781 -6.300781 1.910156 -6.265625 1.765625 -6.234375 L 3.421875 -1.828125 L 3.625 -1.046875 L 3.640625 -1.046875 L 3.828125 -1.84375 Z M 5.265625 -6.234375 "/></g></g></g><g fill="#000000" fill-opacity="1"><g transform="translate(45.348299, 22.467585)"><g><path d="M 4.3125 -0.671875 C 4.257812 -0.566406 4.175781 -0.460938 4.0625 -0.359375 C 3.957031 -0.265625 3.832031 -0.179688 3.6875 -0.109375 C 3.539062 -0.046875 3.382812 0.00390625 3.21875 0.046875 C 3.050781 0.0859375 2.882812 0.109375 2.71875 0.109375 C 2.332031 0.109375 1.992188 0.0507812 1.703125 -0.0625 C 1.421875 -0.175781 1.179688 -0.34375 0.984375 -0.5625 C 0.785156 -0.789062 0.632812 -1.054688 0.53125 -1.359375 C 0.4375 -1.671875 0.390625 -2.019531 0.390625 -2.40625 C 0.390625 -3.238281 0.578125 -3.867188 0.953125 -4.296875 C 1.335938 -4.722656 1.878906 -4.9375 2.578125 -4.9375 C 2.804688 -4.9375 3.03125 -4.90625 3.25 -4.84375 C 3.46875 -4.789062 3.660156 -4.691406 3.828125 -4.546875 C 3.992188 -4.398438 4.128906 -4.207031 4.234375 -3.96875 C 4.347656 -3.738281 4.40625 -3.453125 4.40625 -3.109375 C 4.40625 -2.992188 4.398438 -2.878906 4.390625 -2.765625 C 4.378906 -2.660156 4.359375 -2.539062 4.328125 -2.40625 L 1.328125 -2.40625 C 1.328125 -2.144531 1.359375 -1.894531 1.421875 -1.65625 C 1.492188 -1.414062 1.597656 -1.207031 1.734375 -1.03125 C 1.867188 -0.863281 2.035156 -0.726562 2.234375 -0.625 C 2.441406 -0.53125 2.6875 -0.484375 2.96875 -0.484375 C 3.1875 -0.484375 3.410156 -0.515625 3.640625 -0.578125 C 3.878906 -0.640625 4.054688 -0.722656 4.171875 -0.828125 Z M 2.546875 -4.515625 C 2.171875 -4.515625 1.882812 -4.390625 1.6875 -4.140625 C 1.5 -3.898438 1.390625 -3.46875 1.359375 -2.84375 L 3.46875 -2.84375 C 3.476562 -2.894531 3.484375 -2.945312 3.484375 -3 C 3.492188 -3.0625 3.5 -3.117188 3.5 -3.171875 C 3.5 -3.578125 3.421875 -3.898438 3.265625 -4.140625 C 3.109375 -4.390625 2.867188 -4.515625 2.546875 -4.515625 Z M 2.546875 -4.515625 "/></g></g></g><g fill="#000000" fill-opacity="1"><g transform="translate(50.206002, 22.467585)"><g><path d="M 5.578125 0 L 3.5 0 L 3.5 -0.234375 C 3.664062 -0.328125 3.851562 -0.40625 4.0625 -0.46875 L 4.0625 -2.765625 C 4.0625 -3.253906 3.988281 -3.640625 3.84375 -3.921875 C 3.707031 -4.203125 3.453125 -4.34375 3.078125 -4.34375 C 2.921875 -4.34375 2.769531 -4.3125 2.625 -4.25 C 2.488281 -4.195312 2.367188 -4.117188 2.265625 -4.015625 C 2.160156 -3.921875 2.066406 -3.8125 1.984375 -3.6875 C 1.910156 -3.5625 1.851562 -3.429688 1.8125 -3.296875 L 1.8125 -0.46875 C 2.007812 -0.4375 2.203125 -0.359375 2.390625 -0.234375 L 2.390625 0 L 0.296875 0 L 0.296875 -0.234375 C 0.460938 -0.316406 0.675781 -0.394531 0.9375 -0.46875 L 0.9375 -4.265625 L 0.296875 -4.34375 L 0.296875 -4.59375 C 0.460938 -4.664062 0.65625 -4.726562 0.875 -4.78125 C 1.09375 -4.84375 1.320312 -4.894531 1.5625 -4.9375 L 1.8125 -4.9375 L 1.8125 -3.859375 C 1.945312 -4.160156 2.140625 -4.414062 2.390625 -4.625 C 2.648438 -4.832031 2.960938 -4.9375 3.328125 -4.9375 C 3.578125 -4.9375 3.800781 -4.90625 4 -4.84375 C 4.207031 -4.789062 4.378906 -4.6875 4.515625 -4.53125 C 4.648438 -4.375 4.753906 -4.164062 4.828125 -3.90625 C 4.898438 -3.644531 4.9375 -3.316406 4.9375 -2.921875 L 4.9375 -0.46875 C 5.195312 -0.425781 5.410156 -0.347656 5.578125 -0.234375 Z M 5.578125 0 "/></g></g></g><g fill="#000000" fill-opacity="1"><g transform="translate(55.942534, 22.467585)"><g><path d="M 0.140625 -4.59375 C 0.390625 -4.75 0.648438 -4.859375 0.921875 -4.921875 L 0.921875 -5.75 C 1.003906 -5.820312 1.097656 -5.882812 1.203125 -5.9375 C 1.316406 -5.988281 1.429688 -6.039062 1.546875 -6.09375 L 1.78125 -6.09375 L 1.78125 -4.828125 L 3.234375 -4.828125 L 3.234375 -4.34375 L 1.78125 -4.34375 L 1.78125 -1.546875 C 1.78125 -1.160156 1.84375 -0.882812 1.96875 -0.71875 C 2.09375 -0.5625 2.273438 -0.484375 2.515625 -0.484375 C 2.628906 -0.484375 2.773438 -0.488281 2.953125 -0.5 C 3.128906 -0.519531 3.28125 -0.550781 3.40625 -0.59375 L 3.46875 -0.453125 C 3.414062 -0.390625 3.34375 -0.328125 3.25 -0.265625 C 3.15625 -0.203125 3.046875 -0.140625 2.921875 -0.078125 C 2.804688 -0.0234375 2.675781 0.015625 2.53125 0.046875 C 2.394531 0.0859375 2.253906 0.109375 2.109375 0.109375 C 1.722656 0.109375 1.425781 0 1.21875 -0.21875 C 1.019531 -0.4375 0.921875 -0.789062 0.921875 -1.28125 L 0.921875 -4.34375 L 0.140625 -4.34375 Z M 0.140625 -4.59375 "/></g></g></g><g fill="#000000" fill-opacity="1"><g transform="translate(59.525451, 22.467585)"><g><path d="M 0.75 -1.90625 C 0.75 -2.3125 0.753906 -2.707031 0.765625 -3.09375 C 0.785156 -3.488281 0.796875 -3.878906 0.796875 -4.265625 L 0.171875 -4.34375 L 0.171875 -4.59375 C 0.367188 -4.675781 0.578125 -4.742188 0.796875 -4.796875 C 1.015625 -4.859375 1.222656 -4.90625 1.421875 -4.9375 L 1.671875 -4.9375 C 1.671875 -4.457031 1.660156 -3.976562 1.640625 -3.5 C 1.617188 -3.03125 1.609375 -2.554688 1.609375 -2.078125 C 1.609375 -1.828125 1.625 -1.601562 1.65625 -1.40625 C 1.6875 -1.207031 1.738281 -1.039062 1.8125 -0.90625 C 1.882812 -0.769531 1.984375 -0.664062 2.109375 -0.59375 C 2.242188 -0.519531 2.410156 -0.484375 2.609375 -0.484375 C 2.898438 -0.484375 3.140625 -0.585938 3.328125 -0.796875 C 3.523438 -1.003906 3.679688 -1.273438 3.796875 -1.609375 L 3.796875 -4.265625 L 3.171875 -4.34375 L 3.171875 -4.59375 C 3.367188 -4.675781 3.570312 -4.742188 3.78125 -4.796875 C 4 -4.859375 4.210938 -4.90625 4.421875 -4.9375 L 4.65625 -4.9375 L 4.65625 -0.546875 L 5.296875 -0.46875 L 5.296875 -0.265625 C 5.109375 -0.179688 4.921875 -0.109375 4.734375 -0.046875 C 4.546875 0.015625 4.347656 0.0625 4.140625 0.09375 L 3.90625 0.09375 L 3.828125 -1.046875 L 3.796875 -1.046875 C 3.765625 -0.910156 3.707031 -0.773438 3.625 -0.640625 C 3.539062 -0.503906 3.4375 -0.378906 3.3125 -0.265625 C 3.1875 -0.148438 3.039062 -0.0625 2.875 0 C 2.707031 0.0703125 2.53125 0.109375 2.34375 0.109375 C 2.082031 0.109375 1.851562 0.078125 1.65625 0.015625 C 1.457031 -0.0351562 1.289062 -0.140625 1.15625 -0.296875 C 1.019531 -0.453125 0.914062 -0.660156 0.84375 -0.921875 C 0.78125 -1.179688 0.75 -1.507812 0.75 -1.90625 Z M 0.75 -1.90625 "/></g></g></g><g fill="#000000" fill-opacity="1"><g transform="translate(65.068832, 22.467585)"><g><path d="M 2.359375 -4.109375 C 2.285156 -4.066406 2.195312 -3.984375 2.09375 -3.859375 C 1.988281 -3.742188 1.894531 -3.570312 1.8125 -3.34375 L 1.8125 -0.46875 C 1.9375 -0.457031 2.0625 -0.429688 2.1875 -0.390625 C 2.320312 -0.359375 2.453125 -0.304688 2.578125 -0.234375 L 2.578125 0 L 0.296875 0 L 0.296875 -0.234375 C 0.410156 -0.304688 0.519531 -0.359375 0.625 -0.390625 C 0.726562 -0.421875 0.832031 -0.445312 0.9375 -0.46875 L 0.9375 -4.265625 L 0.296875 -4.34375 L 0.296875 -4.59375 C 0.503906 -4.6875 0.71875 -4.757812 0.9375 -4.8125 C 1.15625 -4.863281 1.363281 -4.90625 1.5625 -4.9375 L 1.8125 -4.9375 L 1.8125 -3.921875 L 1.84375 -3.921875 C 1.90625 -4.046875 1.988281 -4.171875 2.09375 -4.296875 C 2.195312 -4.429688 2.316406 -4.550781 2.453125 -4.65625 C 2.597656 -4.757812 2.75 -4.835938 2.90625 -4.890625 C 3.070312 -4.941406 3.242188 -4.957031 3.421875 -4.9375 C 3.460938 -4.851562 3.5 -4.757812 3.53125 -4.65625 C 3.570312 -4.5625 3.609375 -4.460938 3.640625 -4.359375 L 3.640625 -4.109375 Z M 2.359375 -4.109375 "/></g></g></g><g fill="#000000" fill-opacity="1"><g transform="translate(68.777297, 22.467585)"><g><path d="M 4.3125 -0.671875 C 4.257812 -0.566406 4.175781 -0.460938 4.0625 -0.359375 C 3.957031 -0.265625 3.832031 -0.179688 3.6875 -0.109375 C 3.539062 -0.046875 3.382812 0.00390625 3.21875 0.046875 C 3.050781 0.0859375 2.882812 0.109375 2.71875 0.109375 C 2.332031 0.109375 1.992188 0.0507812 1.703125 -0.0625 C 1.421875 -0.175781 1.179688 -0.34375 0.984375 -0.5625 C 0.785156 -0.789062 0.632812 -1.054688 0.53125 -1.359375 C 0.4375 -1.671875 0.390625 -2.019531 0.390625 -2.40625 C 0.390625 -3.238281 0.578125 -3.867188 0.953125 -4.296875 C 1.335938 -4.722656 1.878906 -4.9375 2.578125 -4.9375 C 2.804688 -4.9375 3.03125 -4.90625 3.25 -4.84375 C 3.46875 -4.789062 3.660156 -4.691406 3.828125 -4.546875 C 3.992188 -4.398438 4.128906 -4.207031 4.234375 -3.96875 C 4.347656 -3.738281 4.40625 -3.453125 4.40625 -3.109375 C 4.40625 -2.992188 4.398438 -2.878906 4.390625 -2.765625 C 4.378906 -2.660156 4.359375 -2.539062 4.328125 -2.40625 L 1.328125 -2.40625 C 1.328125 -2.144531 1.359375 -1.894531 1.421875 -1.65625 C 1.492188 -1.414062 1.597656 -1.207031 1.734375 -1.03125 C 1.867188 -0.863281 2.035156 -0.726562 2.234375 -0.625 C 2.441406 -0.53125 2.6875 -0.484375 2.96875 -0.484375 C 3.1875 -0.484375 3.410156 -0.515625 3.640625 -0.578125 C 3.878906 -0.640625 4.054688 -0.722656 4.171875 -0.828125 Z M 2.546875 -4.515625 C 2.171875 -4.515625 1.882812 -4.390625 1.6875 -4.140625 C 1.5 -3.898438 1.390625 -3.46875 1.359375 -2.84375 L 3.46875 -2.84375 C 3.476562 -2.894531 3.484375 -2.945312 3.484375 -3 C 3.492188 -3.0625 3.5 -3.117188 3.5 -3.171875 C 3.5 -3.578125 3.421875 -3.898438 3.265625 -4.140625 C 3.109375 -4.390625 2.867188 -4.515625 2.546875 -4.515625 Z M 2.546875 -4.515625 "/></g></g></g><g fill="#000000" fill-opacity="1"><g transform="translate(21.340195, 32.217023)"><g><path d="M 2.109375 -2.453125 L 1.25 -2.453125 L 1.25 0 L 0.921875 0 L 0.921875 -2.453125 L 0.078125 -2.453125 L 0.078125 -2.75 L 2.109375 -2.75 Z M 2.109375 -2.453125 "/></g></g></g><g fill="#000000" fill-opacity="1"><g transform="translate(26.645835, 32.217023)"><g><path d="M 1.5625 0 L 1.5625 -1.125 C 1.5625 -1.21875 1.554688 -1.300781 1.546875 -1.375 C 1.535156 -1.457031 1.515625 -1.523438 1.484375 -1.578125 C 1.453125 -1.628906 1.40625 -1.664062 1.34375 -1.6875 C 1.289062 -1.71875 1.222656 -1.734375 1.140625 -1.734375 C 1.015625 -1.734375 0.898438 -1.691406 0.796875 -1.609375 C 0.703125 -1.535156 0.640625 -1.4375 0.609375 -1.3125 L 0.609375 0 L 0.296875 0 L 0.296875 -2.75 L 0.609375 -2.75 L 0.609375 -1.734375 L 0.625 -1.734375 C 0.695312 -1.816406 0.78125 -1.882812 0.875 -1.9375 C 0.96875 -1.988281 1.085938 -2.015625 1.234375 -2.015625 C 1.335938 -2.015625 1.429688 -2 1.515625 -1.96875 C 1.597656 -1.945312 1.664062 -1.90625 1.71875 -1.84375 C 1.769531 -1.78125 1.804688 -1.691406 1.828125 -1.578125 C 1.859375 -1.472656 1.875 -1.34375 1.875 -1.1875 L 1.875 0 Z M 1.5625 0 "/></g></g></g><g fill="#000000" fill-opacity="1"><g transform="translate(31.920149, 32.217023)"><g><path d="M 1.734375 -0.15625 C 1.648438 -0.09375 1.550781 -0.0390625 1.4375 0 C 1.320312 0.03125 1.195312 0.046875 1.0625 0.046875 C 0.90625 0.046875 0.769531 0.0234375 0.65625 -0.015625 C 0.550781 -0.0664062 0.460938 -0.140625 0.390625 -0.234375 C 0.328125 -0.328125 0.273438 -0.4375 0.234375 -0.5625 C 0.203125 -0.6875 0.1875 -0.828125 0.1875 -0.984375 C 0.1875 -1.316406 0.257812 -1.570312 0.40625 -1.75 C 0.5625 -1.925781 0.78125 -2.015625 1.0625 -2.015625 C 1.144531 -2.015625 1.226562 -2.003906 1.3125 -1.984375 C 1.40625 -1.960938 1.488281 -1.921875 1.5625 -1.859375 C 1.632812 -1.804688 1.691406 -1.726562 1.734375 -1.625 C 1.773438 -1.53125 1.796875 -1.398438 1.796875 -1.234375 C 1.796875 -1.148438 1.789062 -1.054688 1.78125 -0.953125 L 0.515625 -0.953125 C 0.515625 -0.835938 0.523438 -0.734375 0.546875 -0.640625 C 0.578125 -0.554688 0.613281 -0.484375 0.65625 -0.421875 C 0.707031 -0.359375 0.773438 -0.3125 0.859375 -0.28125 C 0.941406 -0.25 1.039062 -0.234375 1.15625 -0.234375 C 1.238281 -0.234375 1.320312 -0.25 1.40625 -0.28125 C 1.5 -0.3125 1.566406 -0.347656 1.609375 -0.390625 Z M 1.0625 -1.734375 C 0.90625 -1.734375 0.78125 -1.691406 0.6875 -1.609375 C 0.59375 -1.523438 0.535156 -1.390625 0.515625 -1.203125 L 1.5 -1.203125 C 1.5 -1.398438 1.457031 -1.535156 1.375 -1.609375 C 1.300781 -1.691406 1.195312 -1.734375 1.0625 -1.734375 Z M 1.0625 -1.734375 "/></g></g></g><g fill="#000000" fill-opacity="1"><g transform="translate(37.041756, 32.217023)"><g><path d="M 1.234375 -1.65625 C 1.148438 -1.6875 1.070312 -1.703125 1 -1.703125 C 0.882812 -1.703125 0.796875 -1.671875 0.734375 -1.609375 C 0.671875 -1.546875 0.628906 -1.46875 0.609375 -1.375 L 0.609375 0 L 0.296875 0 L 0.296875 -1.96875 L 0.515625 -1.96875 L 0.578125 -1.71875 L 0.59375 -1.71875 C 0.644531 -1.8125 0.703125 -1.878906 0.765625 -1.921875 C 0.835938 -1.972656 0.929688 -2 1.046875 -2 C 1.117188 -2 1.203125 -1.988281 1.296875 -1.96875 Z M 1.234375 -1.65625 "/></g></g></g><g fill="#000000" fill-opacity="1"><g transform="translate(41.505541, 32.217023)"><g><path d="M 0.265625 -1.8125 C 0.367188 -1.875 0.484375 -1.921875 0.609375 -1.953125 C 0.742188 -1.984375 0.882812 -2 1.03125 -2 C 1.164062 -2 1.273438 -1.976562 1.359375 -1.9375 C 1.441406 -1.894531 1.503906 -1.84375 1.546875 -1.78125 C 1.585938 -1.726562 1.613281 -1.664062 1.625 -1.59375 C 1.644531 -1.53125 1.65625 -1.460938 1.65625 -1.390625 C 1.65625 -1.234375 1.648438 -1.078125 1.640625 -0.921875 C 1.628906 -0.773438 1.625 -0.632812 1.625 -0.5 C 1.625 -0.40625 1.628906 -0.316406 1.640625 -0.234375 C 1.648438 -0.148438 1.664062 -0.0664062 1.6875 0.015625 L 1.453125 0.015625 L 1.375 -0.265625 L 1.359375 -0.265625 C 1.328125 -0.234375 1.296875 -0.195312 1.265625 -0.15625 C 1.234375 -0.125 1.191406 -0.09375 1.140625 -0.0625 C 1.085938 -0.0390625 1.023438 -0.0195312 0.953125 0 C 0.890625 0.0195312 0.816406 0.03125 0.734375 0.03125 C 0.648438 0.03125 0.570312 0.0195312 0.5 0 C 0.4375 -0.03125 0.378906 -0.0664062 0.328125 -0.109375 C 0.273438 -0.160156 0.234375 -0.21875 0.203125 -0.28125 C 0.171875 -0.351562 0.15625 -0.4375 0.15625 -0.53125 C 0.15625 -0.644531 0.175781 -0.738281 0.21875 -0.8125 C 0.269531 -0.882812 0.335938 -0.941406 0.421875 -0.984375 C 0.503906 -1.035156 0.601562 -1.070312 0.71875 -1.09375 C 0.84375 -1.113281 0.976562 -1.125 1.125 -1.125 C 1.15625 -1.125 1.1875 -1.125 1.21875 -1.125 C 1.257812 -1.125 1.300781 -1.125 1.34375 -1.125 C 1.34375 -1.195312 1.34375 -1.265625 1.34375 -1.328125 C 1.34375 -1.472656 1.3125 -1.570312 1.25 -1.625 C 1.195312 -1.6875 1.097656 -1.71875 0.953125 -1.71875 C 0.898438 -1.71875 0.847656 -1.710938 0.796875 -1.703125 C 0.753906 -1.703125 0.703125 -1.691406 0.640625 -1.671875 C 0.585938 -1.660156 0.535156 -1.644531 0.484375 -1.625 C 0.441406 -1.613281 0.40625 -1.597656 0.375 -1.578125 Z M 0.828125 -0.25 C 0.898438 -0.25 0.960938 -0.253906 1.015625 -0.265625 C 1.078125 -0.285156 1.128906 -0.3125 1.171875 -0.34375 C 1.210938 -0.375 1.242188 -0.40625 1.265625 -0.4375 C 1.296875 -0.476562 1.320312 -0.515625 1.34375 -0.546875 L 1.34375 -0.875 C 1.300781 -0.875 1.257812 -0.875 1.21875 -0.875 C 1.1875 -0.882812 1.148438 -0.890625 1.109375 -0.890625 C 1.035156 -0.890625 0.957031 -0.882812 0.875 -0.875 C 0.800781 -0.863281 0.734375 -0.84375 0.671875 -0.8125 C 0.609375 -0.789062 0.5625 -0.757812 0.53125 -0.71875 C 0.5 -0.675781 0.484375 -0.625 0.484375 -0.5625 C 0.484375 -0.46875 0.515625 -0.390625 0.578125 -0.328125 C 0.640625 -0.273438 0.722656 -0.25 0.828125 -0.25 Z M 0.828125 -0.25 "/></g></g></g><g fill="#000000" fill-opacity="1"><g transform="translate(46.580162, 32.217023)"><g><path d="M 0.296875 -1.96875 L 0.515625 -1.96875 L 0.578125 -1.71875 L 0.59375 -1.71875 C 0.65625 -1.8125 0.734375 -1.882812 0.828125 -1.9375 C 0.921875 -1.988281 1.03125 -2.015625 1.15625 -2.015625 C 1.414062 -2.015625 1.609375 -1.9375 1.734375 -1.78125 C 1.859375 -1.625 1.921875 -1.367188 1.921875 -1.015625 C 1.921875 -0.847656 1.898438 -0.695312 1.859375 -0.5625 C 1.816406 -0.4375 1.753906 -0.328125 1.671875 -0.234375 C 1.597656 -0.148438 1.503906 -0.0820312 1.390625 -0.03125 C 1.285156 0.0195312 1.164062 0.046875 1.03125 0.046875 C 0.925781 0.046875 0.847656 0.0390625 0.796875 0.03125 C 0.742188 0.0195312 0.679688 0 0.609375 -0.03125 L 0.609375 0.78125 L 0.296875 0.78125 Z M 1.09375 -1.734375 C 0.957031 -1.734375 0.847656 -1.695312 0.765625 -1.625 C 0.691406 -1.5625 0.640625 -1.457031 0.609375 -1.3125 L 0.609375 -0.34375 C 0.660156 -0.300781 0.710938 -0.269531 0.765625 -0.25 C 0.828125 -0.238281 0.910156 -0.234375 1.015625 -0.234375 C 1.191406 -0.234375 1.332031 -0.296875 1.4375 -0.421875 C 1.550781 -0.554688 1.609375 -0.757812 1.609375 -1.03125 C 1.609375 -1.132812 1.597656 -1.226562 1.578125 -1.3125 C 1.554688 -1.40625 1.523438 -1.476562 1.484375 -1.53125 C 1.441406 -1.59375 1.390625 -1.640625 1.328125 -1.671875 C 1.265625 -1.710938 1.1875 -1.734375 1.09375 -1.734375 Z M 1.09375 -1.734375 "/></g></g></g><g fill="#000000" fill-opacity="1"><g transform="translate(51.830984, 32.217023)"><g><path d="M 0.875 -0.6875 L 0.984375 -0.3125 L 1.015625 -0.3125 L 1.09375 -0.6875 L 1.46875 -1.96875 L 1.796875 -1.96875 L 1.21875 -0.203125 C 1.164062 -0.078125 1.117188 0.046875 1.078125 0.171875 C 1.035156 0.296875 0.988281 0.40625 0.9375 0.5 C 0.882812 0.59375 0.820312 0.664062 0.75 0.71875 C 0.6875 0.769531 0.613281 0.796875 0.53125 0.796875 C 0.4375 0.796875 0.359375 0.785156 0.296875 0.765625 L 0.359375 0.5 C 0.390625 0.507812 0.421875 0.515625 0.453125 0.515625 C 0.523438 0.515625 0.59375 0.472656 0.65625 0.390625 C 0.726562 0.316406 0.785156 0.1875 0.828125 0 L 0.046875 -1.96875 L 0.40625 -1.96875 Z M 0.875 -0.6875 "/></g></g></g></svg>