<svg xmlns="http://www.w3.org/2000/svg" xmlns:xlink="http://www.w3.org/1999/xlink" width="500" zoomAndPan="magnify" viewBox="0 0 375 374.999991" height="500" preserveAspectRatio="xMidYMid meet" version="1.0"><defs><g/><clipPath id="c5fe79a799"><path d="M 114.046875 167.941406 L 157.945312 167.941406 L 157.945312 212.191406 L 114.046875 212.191406 Z M 114.046875 167.941406 " clip-rule="nonzero"/></clipPath><clipPath id="c21f563772"><path d="M 90.636719 153.011719 L 141.636719 153.011719 L 141.636719 204.011719 L 90.636719 204.011719 Z M 90.636719 153.011719 " clip-rule="nonzero"/></clipPath><clipPath id="38dabdd0b5"><path d="M 93.566406 156.855469 L 137.816406 156.855469 L 137.816406 201.105469 L 93.566406 201.105469 Z M 93.566406 156.855469 " clip-rule="nonzero"/></clipPath><clipPath id="f8491d0875"><path d="M 115.867188 131.277344 L 166.867188 131.277344 L 166.867188 182.277344 L 115.867188 182.277344 Z M 115.867188 131.277344 " clip-rule="nonzero"/></clipPath><clipPath id="510a4a63b4"><path d="M 119.144531 134.554688 L 163.394531 134.554688 L 163.394531 178.804688 L 119.144531 178.804688 Z M 119.144531 134.554688 " clip-rule="nonzero"/></clipPath><clipPath id="e7699fd394"><path d="M 114.046875 167.941406 L 157.945312 167.941406 L 157.945312 212.191406 L 114.046875 212.191406 Z M 114.046875 167.941406 " clip-rule="nonzero"/></clipPath><clipPath id="6df19e57ec"><path d="M 90.636719 153.011719 L 141.636719 153.011719 L 141.636719 204.011719 L 90.636719 204.011719 Z M 90.636719 153.011719 " clip-rule="nonzero"/></clipPath><clipPath id="ca7bbd7fe7"><path d="M 93.566406 156.855469 L 137.816406 156.855469 L 137.816406 201.105469 L 93.566406 201.105469 Z M 93.566406 156.855469 " clip-rule="nonzero"/></clipPath><clipPath id="6bedbe6e9d"><path d="M 116.019531 131.277344 L 166.867188 131.277344 L 166.867188 182.277344 L 116.019531 182.277344 Z M 116.019531 131.277344 " clip-rule="nonzero"/></clipPath><clipPath id="475d7918b4"><path d="M 119.496094 134.554688 L 163.394531 134.554688 L 163.394531 178.804688 L 119.496094 178.804688 Z M 119.496094 134.554688 " clip-rule="nonzero"/></clipPath></defs><g clip-path="url(#c5fe79a799)"><path fill="#6a4c93" d="M 135.996094 167.941406 C 148.3125 167.941406 158.296875 177.925781 158.296875 190.242188 L 158.296875 212.542969 L 135.996094 212.542969 C 123.679688 212.542969 113.695312 202.558594 113.695312 190.242188 C 113.695312 177.925781 123.679688 167.941406 135.996094 167.941406 " fill-opacity="1" fill-rule="nonzero"/></g><g clip-path="url(#c21f563772)"><path fill="#ffffff" d="M 116.214844 153.011719 C 102.089844 153.011719 90.636719 164.460938 90.636719 178.585938 L 90.636719 204.164062 L 116.210938 204.164062 C 130.339844 204.164062 141.789062 192.714844 141.789062 178.585938 C 141.789062 164.460938 130.339844 153.011719 116.214844 153.011719 " fill-opacity="1" fill-rule="nonzero"/></g><g clip-path="url(#38dabdd0b5)"><path fill="#ff595e" d="M 115.867188 156.855469 C 103.550781 156.859375 93.566406 166.839844 93.566406 179.15625 L 93.566406 201.457031 L 115.867188 201.457031 C 128.183594 201.457031 138.167969 191.472656 138.167969 179.15625 C 138.167969 166.839844 128.183594 156.859375 115.867188 156.855469 " fill-opacity="1" fill-rule="nonzero"/></g><g clip-path="url(#f8491d0875)"><path fill="#ffffff" d="M 141.445312 131.277344 C 127.320312 131.277344 115.867188 142.726562 115.867188 156.851562 L 115.867188 182.429688 L 141.445312 182.429688 C 155.570312 182.429688 167.019531 170.976562 167.019531 156.851562 C 167.019531 142.726562 155.570312 131.277344 141.445312 131.277344 " fill-opacity="1" fill-rule="nonzero"/></g><g clip-path="url(#510a4a63b4)"><path fill="#ffb703" d="M 141.445312 134.554688 C 129.128906 134.554688 119.144531 144.539062 119.144531 156.855469 L 119.144531 179.15625 L 141.445312 179.15625 C 153.761719 179.15625 163.746094 169.171875 163.746094 156.855469 C 163.746094 144.539062 153.761719 134.554688 141.445312 134.554688 " fill-opacity="1" fill-rule="nonzero"/></g><g fill="#000000" fill-opacity="1"><g transform="translate(125.409988, 164.097428)"><g><path d="M 3.671875 -5.734375 L 2.8125 -7.46875 L 2.734375 -7.46875 L 2.984375 -5.734375 L 2.984375 0 L 0.9375 0 L 0.9375 -11.078125 L 2.515625 -11.078125 L 6.6875 -5.21875 L 7.515625 -3.53125 L 7.59375 -3.53125 L 7.34375 -5.21875 L 7.34375 -11 L 9.390625 -11 L 9.390625 0.078125 L 7.8125 0.078125 Z M 3.671875 -5.734375 "/></g></g></g><g fill="#000000" fill-opacity="1"><g transform="translate(135.734162, 164.097428)"><g><path d="M 0.9375 -11 L 7.46875 -11 L 7.46875 -9.078125 L 3.09375 -9.078125 L 3.09375 -6.515625 L 7.078125 -6.515625 L 7.078125 -4.609375 L 3.09375 -4.609375 L 3.09375 -1.921875 L 7.546875 -1.921875 L 7.546875 0 L 0.9375 0 Z M 0.9375 -11 "/></g></g></g><g fill="#000000" fill-opacity="1"><g transform="translate(143.936932, 164.097428)"><g><path d="M 3.796875 -4.859375 L 4.015625 -2.90625 L 4.078125 -2.90625 L 4.296875 -4.890625 L 6.203125 -11 L 7.625 -11 L 9.515625 -4.859375 L 9.734375 -2.90625 L 9.796875 -2.90625 L 10.03125 -4.890625 L 11.359375 -11 L 13.546875 -11 L 10.515625 0.078125 L 9.0625 0.078125 L 7.109375 -6.03125 L 6.84375 -7.71875 L 6.765625 -7.71875 L 6.484375 -6.015625 L 4.546875 0.078125 L 3.015625 0.078125 L 0 -11 L 2.34375 -11 Z M 3.796875 -4.859375 "/></g></g></g><g fill="#000000" fill-opacity="1"><g transform="translate(172.255758, 170.122211)"><g><path d="M 13.96875 -16.546875 C 13.550781 -16.640625 13.164062 -16.738281 12.8125 -16.84375 C 12.457031 -16.957031 12.109375 -17.070312 11.765625 -17.1875 L 11.765625 -17.9375 L 17.53125 -17.9375 L 17.53125 -17.1875 C 17.03125 -16.914062 16.414062 -16.703125 15.6875 -16.546875 L 9.890625 0 L 8.484375 0.3125 L 1.953125 -16.546875 C 1.609375 -16.640625 1.273438 -16.738281 0.953125 -16.84375 C 0.628906 -16.957031 0.3125 -17.070312 0 -17.1875 L 0 -17.9375 L 6.796875 -17.9375 L 6.796875 -17.1875 C 6.503906 -17.070312 6.175781 -16.957031 5.8125 -16.84375 C 5.457031 -16.738281 5.082031 -16.640625 4.6875 -16.546875 L 9.078125 -4.84375 L 9.609375 -2.796875 L 9.65625 -2.796875 L 10.171875 -4.890625 Z M 13.96875 -16.546875 "/></g></g></g><g fill="#000000" fill-opacity="1"><g transform="translate(189.781597, 170.122211)"><g><path d="M 11.421875 -1.796875 C 11.285156 -1.503906 11.070312 -1.226562 10.78125 -0.96875 C 10.5 -0.71875 10.164062 -0.5 9.78125 -0.3125 C 9.40625 -0.125 8.992188 0.0234375 8.546875 0.140625 C 8.109375 0.253906 7.660156 0.3125 7.203125 0.3125 C 6.191406 0.3125 5.300781 0.15625 4.53125 -0.15625 C 3.757812 -0.476562 3.117188 -0.929688 2.609375 -1.515625 C 2.097656 -2.109375 1.707031 -2.816406 1.4375 -3.640625 C 1.175781 -4.460938 1.046875 -5.382812 1.046875 -6.40625 C 1.046875 -8.59375 1.550781 -10.257812 2.5625 -11.40625 C 3.570312 -12.550781 5 -13.125 6.84375 -13.125 C 7.4375 -13.125 8.023438 -13.039062 8.609375 -12.875 C 9.191406 -12.71875 9.707031 -12.445312 10.15625 -12.0625 C 10.613281 -11.6875 10.984375 -11.1875 11.265625 -10.5625 C 11.546875 -9.945312 11.6875 -9.175781 11.6875 -8.25 C 11.6875 -7.957031 11.671875 -7.660156 11.640625 -7.359375 C 11.617188 -7.066406 11.570312 -6.75 11.5 -6.40625 L 3.515625 -6.40625 C 3.515625 -5.6875 3.601562 -5.015625 3.78125 -4.390625 C 3.957031 -3.765625 4.222656 -3.222656 4.578125 -2.765625 C 4.941406 -2.304688 5.394531 -1.941406 5.9375 -1.671875 C 6.488281 -1.410156 7.128906 -1.28125 7.859375 -1.28125 C 8.460938 -1.28125 9.070312 -1.363281 9.6875 -1.53125 C 10.300781 -1.707031 10.757812 -1.929688 11.0625 -2.203125 Z M 6.734375 -12 C 5.765625 -12 5.019531 -11.664062 4.5 -11 C 3.988281 -10.34375 3.6875 -9.1875 3.59375 -7.53125 L 9.21875 -7.53125 C 9.238281 -7.6875 9.253906 -7.835938 9.265625 -7.984375 C 9.273438 -8.128906 9.28125 -8.269531 9.28125 -8.40625 C 9.28125 -9.5 9.070312 -10.367188 8.65625 -11.015625 C 8.25 -11.671875 7.609375 -12 6.734375 -12 Z M 6.734375 -12 "/></g></g></g><g fill="#000000" fill-opacity="1"><g transform="translate(202.669748, 170.122211)"><g><path d="M 14.78125 0 L 9.28125 0 L 9.28125 -0.640625 C 9.738281 -0.878906 10.238281 -1.082031 10.78125 -1.25 L 10.78125 -7.328125 C 10.78125 -8.628906 10.59375 -9.65625 10.21875 -10.40625 C 9.84375 -11.15625 9.160156 -11.53125 8.171875 -11.53125 C 7.742188 -11.53125 7.347656 -11.453125 6.984375 -11.296875 C 6.617188 -11.140625 6.296875 -10.929688 6.015625 -10.671875 C 5.734375 -10.410156 5.488281 -10.113281 5.28125 -9.78125 C 5.070312 -9.445312 4.910156 -9.097656 4.796875 -8.734375 L 4.796875 -1.25 C 5.328125 -1.15625 5.835938 -0.953125 6.328125 -0.640625 L 6.328125 0 L 0.796875 0 L 0.796875 -0.640625 C 1.222656 -0.859375 1.785156 -1.0625 2.484375 -1.25 L 2.484375 -11.328125 L 0.796875 -11.53125 L 0.796875 -12.203125 C 1.234375 -12.390625 1.742188 -12.554688 2.328125 -12.703125 C 2.910156 -12.859375 3.519531 -13 4.15625 -13.125 L 4.796875 -13.125 L 4.796875 -10.25 L 4.8125 -10.25 C 5.175781 -11.03125 5.691406 -11.703125 6.359375 -12.265625 C 7.035156 -12.835938 7.851562 -13.125 8.8125 -13.125 C 9.5 -13.125 10.109375 -13.039062 10.640625 -12.875 C 11.179688 -12.71875 11.628906 -12.429688 11.984375 -12.015625 C 12.347656 -11.609375 12.625 -11.054688 12.8125 -10.359375 C 13 -9.671875 13.09375 -8.796875 13.09375 -7.734375 L 13.09375 -1.25 C 13.78125 -1.132812 14.34375 -0.929688 14.78125 -0.640625 Z M 14.78125 0 "/></g></g></g><g fill="#000000" fill-opacity="1"><g transform="translate(217.889555, 170.122211)"><g><path d="M 0.390625 -12.203125 C 1.035156 -12.609375 1.71875 -12.894531 2.4375 -13.0625 L 2.4375 -15.25 C 2.65625 -15.4375 2.914062 -15.601562 3.21875 -15.75 C 3.519531 -15.894531 3.8125 -16.035156 4.09375 -16.171875 L 4.734375 -16.171875 L 4.734375 -12.8125 L 8.578125 -12.8125 L 8.578125 -11.53125 L 4.734375 -11.53125 L 4.734375 -4.09375 C 4.734375 -3.070312 4.894531 -2.347656 5.21875 -1.921875 C 5.550781 -1.492188 6.039062 -1.28125 6.6875 -1.28125 C 7 -1.28125 7.382812 -1.300781 7.84375 -1.34375 C 8.300781 -1.382812 8.691406 -1.46875 9.015625 -1.59375 L 9.203125 -1.203125 C 9.066406 -1.046875 8.875 -0.882812 8.625 -0.71875 C 8.375 -0.550781 8.085938 -0.390625 7.765625 -0.234375 C 7.453125 -0.078125 7.109375 0.0507812 6.734375 0.15625 C 6.359375 0.257812 5.976562 0.3125 5.59375 0.3125 C 4.5625 0.3125 3.773438 0.0195312 3.234375 -0.5625 C 2.703125 -1.144531 2.4375 -2.082031 2.4375 -3.375 L 2.4375 -11.53125 L 0.390625 -11.53125 Z M 0.390625 -12.203125 "/></g></g></g><g fill="#000000" fill-opacity="1"><g transform="translate(227.395528, 170.122211)"><g><path d="M 1.96875 -5.078125 C 1.96875 -6.148438 1.992188 -7.203125 2.046875 -8.234375 C 2.097656 -9.265625 2.125 -10.296875 2.125 -11.328125 L 0.4375 -11.53125 L 0.4375 -12.203125 C 0.976562 -12.398438 1.535156 -12.578125 2.109375 -12.734375 C 2.679688 -12.890625 3.242188 -13.019531 3.796875 -13.125 L 4.4375 -13.125 C 4.4375 -11.84375 4.410156 -10.566406 4.359375 -9.296875 C 4.304688 -8.035156 4.28125 -6.78125 4.28125 -5.53125 C 4.28125 -4.863281 4.316406 -4.265625 4.390625 -3.734375 C 4.472656 -3.210938 4.609375 -2.769531 4.796875 -2.40625 C 4.992188 -2.050781 5.265625 -1.773438 5.609375 -1.578125 C 5.953125 -1.378906 6.390625 -1.28125 6.921875 -1.28125 C 7.691406 -1.28125 8.335938 -1.554688 8.859375 -2.109375 C 9.378906 -2.671875 9.785156 -3.394531 10.078125 -4.28125 L 10.078125 -11.328125 L 8.40625 -11.53125 L 8.40625 -12.203125 C 8.9375 -12.398438 9.488281 -12.578125 10.0625 -12.734375 C 10.632812 -12.890625 11.191406 -13.019531 11.734375 -13.125 L 12.375 -13.125 L 12.375 -1.453125 L 14.0625 -1.25 L 14.0625 -0.71875 C 13.570312 -0.5 13.070312 -0.300781 12.5625 -0.125 C 12.0625 0.0390625 11.539062 0.164062 11 0.25 L 10.359375 0.25 L 10.171875 -2.796875 L 10.078125 -2.796875 C 9.984375 -2.429688 9.828125 -2.066406 9.609375 -1.703125 C 9.398438 -1.335938 9.125 -1.003906 8.78125 -0.703125 C 8.445312 -0.398438 8.0625 -0.15625 7.625 0.03125 C 7.1875 0.21875 6.710938 0.3125 6.203125 0.3125 C 5.515625 0.3125 4.910156 0.226562 4.390625 0.0625 C 3.867188 -0.09375 3.425781 -0.375 3.0625 -0.78125 C 2.707031 -1.195312 2.4375 -1.75 2.25 -2.4375 C 2.0625 -3.132812 1.96875 -4.015625 1.96875 -5.078125 Z M 1.96875 -5.078125 "/></g></g></g><g fill="#000000" fill-opacity="1"><g transform="translate(242.102878, 170.122211)"><g><path d="M 6.25 -10.890625 C 6.0625 -10.785156 5.828125 -10.570312 5.546875 -10.25 C 5.265625 -9.9375 5.015625 -9.472656 4.796875 -8.859375 L 4.796875 -1.25 C 5.128906 -1.21875 5.46875 -1.15625 5.8125 -1.0625 C 6.15625 -0.96875 6.5 -0.828125 6.84375 -0.640625 L 6.84375 0 L 0.796875 0 L 0.796875 -0.640625 C 1.097656 -0.804688 1.382812 -0.929688 1.65625 -1.015625 C 1.9375 -1.109375 2.210938 -1.1875 2.484375 -1.25 L 2.484375 -11.328125 L 0.796875 -11.53125 L 0.796875 -12.203125 C 1.335938 -12.441406 1.898438 -12.628906 2.484375 -12.765625 C 3.066406 -12.910156 3.625 -13.03125 4.15625 -13.125 L 4.796875 -13.125 L 4.796875 -10.40625 L 4.890625 -10.40625 C 5.046875 -10.75 5.265625 -11.085938 5.546875 -11.421875 C 5.828125 -11.765625 6.148438 -12.070312 6.515625 -12.34375 C 6.890625 -12.625 7.289062 -12.835938 7.71875 -12.984375 C 8.15625 -13.128906 8.609375 -13.175781 9.078125 -13.125 C 9.191406 -12.894531 9.296875 -12.648438 9.390625 -12.390625 C 9.484375 -12.128906 9.570312 -11.851562 9.65625 -11.5625 L 9.65625 -10.890625 Z M 6.25 -10.890625 "/></g></g></g><g fill="#000000" fill-opacity="1"><g transform="translate(251.941945, 170.122211)"><g><path d="M 11.421875 -1.796875 C 11.285156 -1.503906 11.070312 -1.226562 10.78125 -0.96875 C 10.5 -0.71875 10.164062 -0.5 9.78125 -0.3125 C 9.40625 -0.125 8.992188 0.0234375 8.546875 0.140625 C 8.109375 0.253906 7.660156 0.3125 7.203125 0.3125 C 6.191406 0.3125 5.300781 0.15625 4.53125 -0.15625 C 3.757812 -0.476562 3.117188 -0.929688 2.609375 -1.515625 C 2.097656 -2.109375 1.707031 -2.816406 1.4375 -3.640625 C 1.175781 -4.460938 1.046875 -5.382812 1.046875 -6.40625 C 1.046875 -8.59375 1.550781 -10.257812 2.5625 -11.40625 C 3.570312 -12.550781 5 -13.125 6.84375 -13.125 C 7.4375 -13.125 8.023438 -13.039062 8.609375 -12.875 C 9.191406 -12.71875 9.707031 -12.445312 10.15625 -12.0625 C 10.613281 -11.6875 10.984375 -11.1875 11.265625 -10.5625 C 11.546875 -9.945312 11.6875 -9.175781 11.6875 -8.25 C 11.6875 -7.957031 11.671875 -7.660156 11.640625 -7.359375 C 11.617188 -7.066406 11.570312 -6.75 11.5 -6.40625 L 3.515625 -6.40625 C 3.515625 -5.6875 3.601562 -5.015625 3.78125 -4.390625 C 3.957031 -3.765625 4.222656 -3.222656 4.578125 -2.765625 C 4.941406 -2.304688 5.394531 -1.941406 5.9375 -1.671875 C 6.488281 -1.410156 7.128906 -1.28125 7.859375 -1.28125 C 8.460938 -1.28125 9.070312 -1.363281 9.6875 -1.53125 C 10.300781 -1.707031 10.757812 -1.929688 11.0625 -2.203125 Z M 6.734375 -12 C 5.765625 -12 5.019531 -11.664062 4.5 -11 C 3.988281 -10.34375 3.6875 -9.1875 3.59375 -7.53125 L 9.21875 -7.53125 C 9.238281 -7.6875 9.253906 -7.835938 9.265625 -7.984375 C 9.273438 -8.128906 9.28125 -8.269531 9.28125 -8.40625 C 9.28125 -9.5 9.070312 -10.367188 8.65625 -11.015625 C 8.25 -11.671875 7.609375 -12 6.734375 -12 Z M 6.734375 -12 "/></g></g></g><g fill="#000000" fill-opacity="1"><g transform="translate(171.533423, 200.837932)"><g><path d="M 11.53125 0 L 4.328125 0 L 4.328125 -0.75 C 4.703125 -0.882812 5.082031 -1 5.46875 -1.09375 C 5.851562 -1.195312 6.269531 -1.285156 6.71875 -1.359375 L 6.71875 -16.609375 L 2.796875 -16.609375 L 1.4375 -12.9375 L 0.796875 -12.9375 C 0.742188 -13.28125 0.695312 -13.671875 0.65625 -14.109375 C 0.625 -14.546875 0.59375 -14.988281 0.5625 -15.4375 C 0.539062 -15.894531 0.519531 -16.335938 0.5 -16.765625 C 0.488281 -17.203125 0.484375 -17.59375 0.484375 -17.9375 L 15.375 -17.9375 C 15.375 -17.59375 15.363281 -17.207031 15.34375 -16.78125 C 15.332031 -16.351562 15.3125 -15.910156 15.28125 -15.453125 C 15.257812 -15.003906 15.234375 -14.5625 15.203125 -14.125 C 15.179688 -13.695312 15.144531 -13.300781 15.09375 -12.9375 L 14.421875 -12.9375 L 13.09375 -16.609375 L 9.171875 -16.609375 L 9.171875 -1.359375 C 9.617188 -1.273438 10.035156 -1.1875 10.421875 -1.09375 C 10.804688 -1.007812 11.175781 -0.894531 11.53125 -0.75 Z M 11.53125 0 "/></g></g></g><g fill="#000000" fill-opacity="1"><g transform="translate(187.393794, 200.837932)"><g><path d="M 14.609375 0 L 9.078125 0 L 9.078125 -0.640625 C 9.484375 -0.859375 9.992188 -1.0625 10.609375 -1.25 L 10.609375 -7.25 C 10.609375 -8.582031 10.421875 -9.628906 10.046875 -10.390625 C 9.671875 -11.148438 8.988281 -11.53125 8 -11.53125 C 7.550781 -11.53125 7.144531 -11.445312 6.78125 -11.28125 C 6.425781 -11.125 6.101562 -10.914062 5.8125 -10.65625 C 5.519531 -10.40625 5.269531 -10.113281 5.0625 -9.78125 C 4.863281 -9.445312 4.710938 -9.097656 4.609375 -8.734375 L 4.609375 -1.25 C 4.878906 -1.1875 5.140625 -1.109375 5.390625 -1.015625 C 5.640625 -0.929688 5.882812 -0.804688 6.125 -0.640625 L 6.125 0 L 0.609375 0 L 0.609375 -0.640625 C 1.140625 -0.910156 1.707031 -1.113281 2.3125 -1.25 L 2.3125 -17.46875 L 0.359375 -17.6875 L 0.359375 -18.34375 C 0.859375 -18.550781 1.4375 -18.726562 2.09375 -18.875 C 2.75 -19.03125 3.375 -19.160156 3.96875 -19.265625 L 4.609375 -19.265625 L 4.609375 -10.21875 L 4.640625 -10.21875 C 4.992188 -11.019531 5.507812 -11.703125 6.1875 -12.265625 C 6.863281 -12.835938 7.679688 -13.125 8.640625 -13.125 C 9.316406 -13.125 9.925781 -13.039062 10.46875 -12.875 C 11.007812 -12.71875 11.457031 -12.429688 11.8125 -12.015625 C 12.164062 -11.609375 12.4375 -11.054688 12.625 -10.359375 C 12.820312 -9.671875 12.921875 -8.796875 12.921875 -7.734375 L 12.921875 -1.25 C 13.203125 -1.1875 13.488281 -1.109375 13.78125 -1.015625 C 14.070312 -0.929688 14.347656 -0.804688 14.609375 -0.640625 Z M 14.609375 0 "/></g></g></g><g fill="#000000" fill-opacity="1"><g transform="translate(202.434238, 200.837932)"><g><path d="M 11.421875 -1.796875 C 11.285156 -1.503906 11.070312 -1.226562 10.78125 -0.96875 C 10.5 -0.71875 10.164062 -0.5 9.78125 -0.3125 C 9.40625 -0.125 8.992188 0.0234375 8.546875 0.140625 C 8.109375 0.253906 7.660156 0.3125 7.203125 0.3125 C 6.191406 0.3125 5.300781 0.15625 4.53125 -0.15625 C 3.757812 -0.476562 3.117188 -0.929688 2.609375 -1.515625 C 2.097656 -2.109375 1.707031 -2.816406 1.4375 -3.640625 C 1.175781 -4.460938 1.046875 -5.382812 1.046875 -6.40625 C 1.046875 -8.59375 1.550781 -10.257812 2.5625 -11.40625 C 3.570312 -12.550781 5 -13.125 6.84375 -13.125 C 7.4375 -13.125 8.023438 -13.039062 8.609375 -12.875 C 9.191406 -12.71875 9.707031 -12.445312 10.15625 -12.0625 C 10.613281 -11.6875 10.984375 -11.1875 11.265625 -10.5625 C 11.546875 -9.945312 11.6875 -9.175781 11.6875 -8.25 C 11.6875 -7.957031 11.671875 -7.660156 11.640625 -7.359375 C 11.617188 -7.066406 11.570312 -6.75 11.5 -6.40625 L 3.515625 -6.40625 C 3.515625 -5.6875 3.601562 -5.015625 3.78125 -4.390625 C 3.957031 -3.765625 4.222656 -3.222656 4.578125 -2.765625 C 4.941406 -2.304688 5.394531 -1.941406 5.9375 -1.671875 C 6.488281 -1.410156 7.128906 -1.28125 7.859375 -1.28125 C 8.460938 -1.28125 9.070312 -1.363281 9.6875 -1.53125 C 10.300781 -1.707031 10.757812 -1.929688 11.0625 -2.203125 Z M 6.734375 -12 C 5.765625 -12 5.019531 -11.664062 4.5 -11 C 3.988281 -10.34375 3.6875 -9.1875 3.59375 -7.53125 L 9.21875 -7.53125 C 9.238281 -7.6875 9.253906 -7.835938 9.265625 -7.984375 C 9.273438 -8.128906 9.28125 -8.269531 9.28125 -8.40625 C 9.28125 -9.5 9.070312 -10.367188 8.65625 -11.015625 C 8.25 -11.671875 7.609375 -12 6.734375 -12 Z M 6.734375 -12 "/></g></g></g><g fill="#000000" fill-opacity="1"><g transform="translate(215.322389, 200.837932)"><g><path d="M 6.25 -10.890625 C 6.0625 -10.785156 5.828125 -10.570312 5.546875 -10.25 C 5.265625 -9.9375 5.015625 -9.472656 4.796875 -8.859375 L 4.796875 -1.25 C 5.128906 -1.21875 5.46875 -1.15625 5.8125 -1.0625 C 6.15625 -0.96875 6.5 -0.828125 6.84375 -0.640625 L 6.84375 0 L 0.796875 0 L 0.796875 -0.640625 C 1.097656 -0.804688 1.382812 -0.929688 1.65625 -1.015625 C 1.9375 -1.109375 2.210938 -1.1875 2.484375 -1.25 L 2.484375 -11.328125 L 0.796875 -11.53125 L 0.796875 -12.203125 C 1.335938 -12.441406 1.898438 -12.628906 2.484375 -12.765625 C 3.066406 -12.910156 3.625 -13.03125 4.15625 -13.125 L 4.796875 -13.125 L 4.796875 -10.40625 L 4.890625 -10.40625 C 5.046875 -10.75 5.265625 -11.085938 5.546875 -11.421875 C 5.828125 -11.765625 6.148438 -12.070312 6.515625 -12.34375 C 6.890625 -12.625 7.289062 -12.835938 7.71875 -12.984375 C 8.15625 -13.128906 8.609375 -13.175781 9.078125 -13.125 C 9.191406 -12.894531 9.296875 -12.648438 9.390625 -12.390625 C 9.484375 -12.128906 9.570312 -11.851562 9.65625 -11.5625 L 9.65625 -10.890625 Z M 6.25 -10.890625 "/></g></g></g><g fill="#000000" fill-opacity="1"><g transform="translate(225.161456, 200.837932)"><g><path d="M 10.5 -3.359375 C 10.5 -2.984375 10.507812 -2.65625 10.53125 -2.375 C 10.550781 -2.101562 10.566406 -1.816406 10.578125 -1.515625 L 12.34375 -1.25 L 12.34375 -0.71875 C 11.914062 -0.5 11.441406 -0.300781 10.921875 -0.125 C 10.398438 0.0390625 9.90625 0.164062 9.4375 0.25 L 8.796875 0.25 C 8.617188 -0.132812 8.515625 -0.5625 8.484375 -1.03125 C 8.453125 -1.507812 8.425781 -2.03125 8.40625 -2.59375 L 8.28125 -2.59375 C 8.207031 -2.25 8.070312 -1.898438 7.875 -1.546875 C 7.675781 -1.203125 7.421875 -0.890625 7.109375 -0.609375 C 6.796875 -0.335938 6.425781 -0.117188 6 0.046875 C 5.570312 0.222656 5.082031 0.3125 4.53125 0.3125 C 3.488281 0.3125 2.640625 -0.00390625 1.984375 -0.640625 C 1.328125 -1.273438 1 -2.101562 1 -3.125 C 1 -3.914062 1.15625 -4.5625 1.46875 -5.0625 C 1.789062 -5.5625 2.257812 -5.957031 2.875 -6.25 C 3.488281 -6.539062 4.25 -6.75 5.15625 -6.875 C 6.0625 -7.007812 7.109375 -7.109375 8.296875 -7.171875 C 8.367188 -7.910156 8.390625 -8.570312 8.359375 -9.15625 C 8.335938 -9.75 8.242188 -10.253906 8.078125 -10.671875 C 7.921875 -11.085938 7.679688 -11.410156 7.359375 -11.640625 C 7.046875 -11.878906 6.632812 -12 6.125 -12 C 5.882812 -12 5.613281 -11.984375 5.3125 -11.953125 C 5.019531 -11.929688 4.726562 -11.859375 4.4375 -11.734375 L 3.234375 -8.65625 L 2.5625 -8.65625 C 2.394531 -9.175781 2.242188 -9.707031 2.109375 -10.25 C 1.984375 -10.789062 1.90625 -11.328125 1.875 -11.859375 C 2.519531 -12.253906 3.238281 -12.5625 4.03125 -12.78125 C 4.832031 -13.007812 5.71875 -13.125 6.6875 -13.125 C 7.5625 -13.125 8.257812 -13 8.78125 -12.75 C 9.300781 -12.5 9.695312 -12.175781 9.96875 -11.78125 C 10.238281 -11.394531 10.414062 -10.960938 10.5 -10.484375 C 10.59375 -10.003906 10.640625 -9.523438 10.640625 -9.046875 C 10.640625 -8.023438 10.613281 -7.035156 10.5625 -6.078125 C 10.519531 -5.128906 10.5 -4.222656 10.5 -3.359375 Z M 5.5625 -1.28125 C 5.988281 -1.28125 6.363281 -1.363281 6.6875 -1.53125 C 7.007812 -1.707031 7.28125 -1.914062 7.5 -2.15625 C 7.726562 -2.394531 7.910156 -2.632812 8.046875 -2.875 C 8.179688 -3.125 8.273438 -3.335938 8.328125 -3.515625 L 8.328125 -6.203125 C 7.335938 -6.203125 6.523438 -6.148438 5.890625 -6.046875 C 5.265625 -5.941406 4.769531 -5.78125 4.40625 -5.5625 C 4.050781 -5.34375 3.800781 -5.066406 3.65625 -4.734375 C 3.519531 -4.398438 3.453125 -4.019531 3.453125 -3.59375 C 3.453125 -2.851562 3.640625 -2.28125 4.015625 -1.875 C 4.398438 -1.476562 4.914062 -1.28125 5.5625 -1.28125 Z M 5.5625 -1.28125 "/></g></g></g><g fill="#000000" fill-opacity="1"><g transform="translate(238.100855, 200.837932)"><g><path d="M 6.484375 5.125 L 0.796875 5.125 L 0.796875 4.484375 C 1.378906 4.210938 1.941406 4.007812 2.484375 3.875 L 2.484375 -11.328125 L 0.796875 -11.53125 L 0.796875 -12.203125 C 1.335938 -12.441406 1.894531 -12.628906 2.46875 -12.765625 C 3.039062 -12.910156 3.601562 -13.03125 4.15625 -13.125 L 4.796875 -13.125 L 4.796875 -10.25 L 4.8125 -10.25 C 5.15625 -11.125 5.632812 -11.820312 6.25 -12.34375 C 6.863281 -12.863281 7.664062 -13.125 8.65625 -13.125 C 10.175781 -13.125 11.351562 -12.617188 12.1875 -11.609375 C 13.03125 -10.597656 13.453125 -8.957031 13.453125 -6.6875 C 13.453125 -5.613281 13.3125 -4.640625 13.03125 -3.765625 C 12.75 -2.890625 12.347656 -2.15625 11.828125 -1.5625 C 11.304688 -0.96875 10.671875 -0.503906 9.921875 -0.171875 C 9.179688 0.148438 8.359375 0.3125 7.453125 0.3125 C 6.828125 0.3125 6.332031 0.269531 5.96875 0.1875 C 5.613281 0.113281 5.222656 -0.015625 4.796875 -0.203125 L 4.796875 3.875 C 5.066406 3.90625 5.335938 3.96875 5.609375 4.0625 C 5.878906 4.15625 6.171875 4.296875 6.484375 4.484375 Z M 7.84375 -11.53125 C 7 -11.53125 6.328125 -11.265625 5.828125 -10.734375 C 5.335938 -10.203125 4.992188 -9.476562 4.796875 -8.5625 L 4.796875 -1.390625 C 5.097656 -1.203125 5.441406 -1.054688 5.828125 -0.953125 C 6.210938 -0.859375 6.710938 -0.8125 7.328125 -0.8125 C 7.890625 -0.8125 8.394531 -0.957031 8.84375 -1.25 C 9.300781 -1.539062 9.6875 -1.953125 10 -2.484375 C 10.320312 -3.015625 10.566406 -3.632812 10.734375 -4.34375 C 10.910156 -5.050781 11 -5.832031 11 -6.6875 C 11 -7.382812 10.941406 -8.023438 10.828125 -8.609375 C 10.710938 -9.203125 10.53125 -9.71875 10.28125 -10.15625 C 10.039062 -10.59375 9.71875 -10.929688 9.3125 -11.171875 C 8.914062 -11.410156 8.425781 -11.53125 7.84375 -11.53125 Z M 7.84375 -11.53125 "/></g></g></g><g fill="#000000" fill-opacity="1"><g transform="translate(252.603226, 200.837932)"><g><path d="M 1.078125 -11.53125 C 0.816406 -11.601562 0.578125 -11.6875 0.359375 -11.78125 C 0.148438 -11.882812 -0.0625 -12.003906 -0.28125 -12.140625 L -0.28125 -12.8125 L 5.078125 -12.8125 L 5.078125 -12.171875 C 4.710938 -11.929688 4.222656 -11.71875 3.609375 -11.53125 L 6.890625 -3.953125 L 7.375 -2.359375 L 7.4375 -2.359375 L 7.8125 -3.96875 L 10.25 -11.53125 C 9.738281 -11.632812 9.269531 -11.835938 8.84375 -12.140625 L 8.84375 -12.8125 L 13.21875 -12.8125 L 13.21875 -12.140625 C 12.863281 -11.898438 12.378906 -11.695312 11.765625 -11.53125 L 7.765625 0 C 7.359375 1.09375 6.96875 1.976562 6.59375 2.65625 C 6.226562 3.332031 5.863281 3.863281 5.5 4.25 C 5.132812 4.644531 4.757812 4.929688 4.375 5.109375 C 3.988281 5.285156 3.570312 5.421875 3.125 5.515625 C 2.9375 5.179688 2.769531 4.816406 2.625 4.421875 C 2.476562 4.035156 2.351562 3.664062 2.25 3.3125 L 2.59375 2.6875 L 5.25 2.6875 C 5.351562 2.550781 5.441406 2.414062 5.515625 2.28125 C 5.597656 2.15625 5.679688 2 5.765625 1.8125 C 5.847656 1.625 5.941406 1.382812 6.046875 1.09375 C 6.148438 0.8125 6.269531 0.445312 6.40625 0 Z M 1.078125 -11.53125 "/></g></g></g><g clip-path="url(#e7699fd394)"><path fill="#6a4c93" d="M 135.996094 167.941406 C 148.3125 167.941406 158.296875 177.925781 158.296875 190.242188 L 158.296875 212.542969 L 135.996094 212.542969 C 123.679688 212.542969 113.695312 202.558594 113.695312 190.242188 C 113.695312 177.925781 123.679688 167.941406 135.996094 167.941406 " fill-opacity="1" fill-rule="nonzero"/></g><g clip-path="url(#6df19e57ec)"><path fill="#ffffff" d="M 116.214844 153.011719 C 102.089844 153.011719 90.636719 164.460938 90.636719 178.585938 L 90.636719 204.164062 L 116.210938 204.164062 C 130.339844 204.164062 141.789062 192.714844 141.789062 178.585938 C 141.789062 164.460938 130.339844 153.011719 116.214844 153.011719 " fill-opacity="1" fill-rule="nonzero"/></g><g clip-path="url(#ca7bbd7fe7)"><path fill="#ff595e" d="M 115.867188 156.855469 C 103.550781 156.859375 93.566406 166.839844 93.566406 179.15625 L 93.566406 201.457031 L 115.867188 201.457031 C 128.183594 201.457031 138.167969 191.472656 138.167969 179.15625 C 138.167969 166.839844 128.183594 156.859375 115.867188 156.855469 " fill-opacity="1" fill-rule="nonzero"/></g><g clip-path="url(#6bedbe6e9d)"><path fill="#ffffff" d="M 141.445312 131.277344 C 155.570312 131.277344 167.019531 142.726562 167.019531 156.851562 L 167.019531 182.429688 L 141.445312 182.429688 C 127.320312 182.429688 115.867188 170.976562 115.867188 156.851562 C 115.867188 142.726562 127.320312 131.277344 141.445312 131.277344 " fill-opacity="1" fill-rule="nonzero"/></g><g clip-path="url(#475d7918b4)"><path fill="#ffb703" d="M 141.445312 134.554688 C 153.761719 134.554688 163.746094 144.539062 163.746094 156.855469 L 163.746094 179.15625 L 141.445312 179.15625 C 129.128906 179.15625 119.144531 169.171875 119.144531 156.855469 C 119.144531 144.539062 129.128906 134.554688 141.445312 134.554688 " fill-opacity="1" fill-rule="nonzero"/></g><g fill="#000000" fill-opacity="1"><g transform="translate(126.404022, 164.120104)"><g><path d="M 3.671875 -5.734375 L 2.8125 -7.46875 L 2.734375 -7.46875 L 2.984375 -5.734375 L 2.984375 0 L 0.9375 0 L 0.9375 -11.078125 L 2.515625 -11.078125 L 6.6875 -5.21875 L 7.515625 -3.53125 L 7.59375 -3.53125 L 7.34375 -5.21875 L 7.34375 -11 L 9.390625 -11 L 9.390625 0.078125 L 7.8125 0.078125 Z M 3.671875 -5.734375 "/></g></g></g><g fill="#000000" fill-opacity="1"><g transform="translate(136.728196, 164.120104)"><g><path d="M 0.9375 -11 L 7.46875 -11 L 7.46875 -9.078125 L 3.09375 -9.078125 L 3.09375 -6.515625 L 7.078125 -6.515625 L 7.078125 -4.609375 L 3.09375 -4.609375 L 3.09375 -1.921875 L 7.546875 -1.921875 L 7.546875 0 L 0.9375 0 Z M 0.9375 -11 "/></g></g></g><g fill="#000000" fill-opacity="1"><g transform="translate(144.930966, 164.120104)"><g><path d="M 3.796875 -4.859375 L 4.015625 -2.90625 L 4.078125 -2.90625 L 4.296875 -4.890625 L 6.203125 -11 L 7.625 -11 L 9.515625 -4.859375 L 9.734375 -2.90625 L 9.796875 -2.90625 L 10.03125 -4.890625 L 11.359375 -11 L 13.546875 -11 L 10.515625 0.078125 L 9.0625 0.078125 L 7.109375 -6.03125 L 6.84375 -7.71875 L 6.765625 -7.71875 L 6.484375 -6.015625 L 4.546875 0.078125 L 3.015625 0.078125 L 0 -11 L 2.34375 -11 Z M 3.796875 -4.859375 "/></g></g></g></svg>