<svg xmlns="http://www.w3.org/2000/svg" xmlns:xlink="http://www.w3.org/1999/xlink" width="500" zoomAndPan="magnify" viewBox="0 0 375 374.999991" height="500" preserveAspectRatio="xMidYMid meet" version="1.0"><defs><g/><clipPath id="c8ca6de42e"><path d="M 140.804688 170.953125 L 182.734375 170.953125 L 182.734375 212.953125 L 140.804688 212.953125 Z M 140.804688 170.953125 " clip-rule="nonzero"/></clipPath><clipPath id="996a342ece"><path d="M 118.984375 156.871094 L 166.984375 156.871094 L 166.984375 204.871094 L 118.984375 204.871094 Z M 118.984375 156.871094 " clip-rule="nonzero"/></clipPath><clipPath id="ba29216e5a"><path d="M 121.746094 160.5 L 163.746094 160.5 L 163.746094 202.5 L 121.746094 202.5 Z M 121.746094 160.5 " clip-rule="nonzero"/></clipPath><clipPath id="c803bda956"><path d="M 143.042969 136.367188 L 190.785156 136.367188 L 190.785156 184.367188 L 143.042969 184.367188 Z M 143.042969 136.367188 " clip-rule="nonzero"/></clipPath><clipPath id="d43f3917c8"><path d="M 145.949219 139.460938 L 187.878906 139.460938 L 187.878906 181.460938 L 145.949219 181.460938 Z M 145.949219 139.460938 " clip-rule="nonzero"/></clipPath></defs><g clip-path="url(#c8ca6de42e)"><path fill="#6a4c93" d="M 161.769531 170.953125 C 173.386719 170.953125 182.804688 180.371094 182.804688 191.988281 L 182.804688 213.023438 L 161.773438 213.023438 C 150.152344 213.023438 140.738281 203.605469 140.734375 191.988281 C 140.738281 180.371094 150.152344 170.953125 161.769531 170.953125 " fill-opacity="1" fill-rule="nonzero"/></g><g clip-path="url(#996a342ece)"><path fill="#ffffff" d="M 143.117188 156.871094 C 129.789062 156.871094 118.988281 167.671875 118.984375 181 L 118.988281 205.128906 L 143.113281 205.128906 C 156.441406 205.128906 167.242188 194.324219 167.242188 181 C 167.242188 167.671875 156.441406 156.871094 143.117188 156.871094 " fill-opacity="1" fill-rule="nonzero"/></g><g clip-path="url(#ba29216e5a)"><path fill="#ff595e" d="M 142.785156 160.5 C 131.164062 160.5 121.75 169.914062 121.746094 181.535156 L 121.75 202.570312 L 142.78125 202.570312 C 154.402344 202.570312 163.816406 193.152344 163.816406 181.535156 C 163.816406 169.914062 154.402344 160.5 142.785156 160.5 " fill-opacity="1" fill-rule="nonzero"/></g><g clip-path="url(#c803bda956)"><path fill="#ffffff" d="M 166.914062 136.367188 C 180.242188 136.367188 191.042969 147.171875 191.042969 160.496094 L 191.042969 184.625 L 166.914062 184.625 C 153.589844 184.625 142.785156 173.824219 142.785156 160.496094 C 142.785156 147.171875 153.589844 136.367188 166.914062 136.367188 " fill-opacity="1" fill-rule="nonzero"/></g><g clip-path="url(#d43f3917c8)"><path fill="#ffb703" d="M 166.914062 139.460938 C 178.53125 139.460938 187.949219 148.878906 187.949219 160.496094 L 187.949219 181.53125 L 166.914062 181.53125 C 155.296875 181.53125 145.878906 172.113281 145.878906 160.496094 C 145.878906 148.878906 155.296875 139.460938 166.914062 139.460938 " fill-opacity="1" fill-rule="nonzero"/></g><g fill="#000000" fill-opacity="1"><g transform="translate(34.612746, 192.777457)"><g><path d="M 20.109375 -28.890625 L 29.015625 -28.890625 L 29.015625 -27.703125 C 27.859375 -26.929688 26.734375 -26.378906 25.640625 -26.046875 L 25.640625 0.5 L 23.28125 0.5 L 8.296875 -22.25 L 6.6875 -25.46875 L 6.5625 -25.46875 L 6.9375 -22.25 L 6.9375 -2.640625 C 8.0625 -2.335938 9.117188 -1.859375 10.109375 -1.203125 L 10.109375 0 L 1.203125 0 L 1.203125 -1.203125 C 1.691406 -1.503906 2.21875 -1.769531 2.78125 -2 C 3.34375 -2.238281 3.941406 -2.453125 4.578125 -2.640625 L 4.578125 -26.296875 C 4.023438 -26.515625 3.476562 -26.75 2.9375 -27 C 2.40625 -27.25 1.90625 -27.492188 1.4375 -27.734375 L 1.4375 -28.890625 L 8.421875 -28.890625 L 21.421875 -9.28125 L 23.328125 -5.734375 L 23.484375 -5.734375 L 23.28125 -9.28125 L 23.28125 -26.046875 C 22.707031 -26.296875 22.148438 -26.554688 21.609375 -26.828125 C 21.078125 -27.109375 20.578125 -27.398438 20.109375 -27.703125 Z M 20.109375 -28.890625 "/></g></g></g><g fill="#000000" fill-opacity="1"><g transform="translate(64.827649, 192.777457)"><g><path d="M 18.40625 -2.890625 C 18.1875 -2.421875 17.84375 -1.976562 17.375 -1.5625 C 16.90625 -1.15625 16.367188 -0.800781 15.765625 -0.5 C 15.160156 -0.195312 14.5 0.0390625 13.78125 0.21875 C 13.070312 0.40625 12.34375 0.5 11.59375 0.5 C 9.976562 0.5 8.550781 0.242188 7.3125 -0.265625 C 6.070312 -0.773438 5.035156 -1.503906 4.203125 -2.453125 C 3.378906 -3.398438 2.753906 -4.535156 2.328125 -5.859375 C 1.898438 -7.179688 1.6875 -8.664062 1.6875 -10.3125 C 1.6875 -13.84375 2.5 -16.53125 4.125 -18.375 C 5.75 -20.21875 8.046875 -21.140625 11.015625 -21.140625 C 11.984375 -21.140625 12.9375 -21.007812 13.875 -20.75 C 14.8125 -20.488281 15.644531 -20.050781 16.375 -19.4375 C 17.101562 -18.832031 17.691406 -18.023438 18.140625 -17.015625 C 18.597656 -16.015625 18.828125 -14.773438 18.828125 -13.296875 C 18.828125 -12.828125 18.804688 -12.347656 18.765625 -11.859375 C 18.722656 -11.378906 18.644531 -10.863281 18.53125 -10.3125 L 5.65625 -10.3125 C 5.65625 -9.164062 5.796875 -8.085938 6.078125 -7.078125 C 6.367188 -6.078125 6.800781 -5.203125 7.375 -4.453125 C 7.957031 -3.710938 8.6875 -3.128906 9.5625 -2.703125 C 10.445312 -2.273438 11.484375 -2.0625 12.671875 -2.0625 C 13.640625 -2.0625 14.617188 -2.195312 15.609375 -2.46875 C 16.597656 -2.75 17.335938 -3.109375 17.828125 -3.546875 Z M 10.859375 -19.3125 C 9.285156 -19.3125 8.085938 -18.78125 7.265625 -17.71875 C 6.441406 -16.664062 5.945312 -14.804688 5.78125 -12.140625 L 14.859375 -12.140625 C 14.890625 -12.390625 14.910156 -12.628906 14.921875 -12.859375 C 14.929688 -13.085938 14.9375 -13.316406 14.9375 -13.546875 C 14.9375 -15.304688 14.609375 -16.707031 13.953125 -17.75 C 13.296875 -18.789062 12.265625 -19.3125 10.859375 -19.3125 Z M 10.859375 -19.3125 "/></g></g></g><g fill="#000000" fill-opacity="1"><g transform="translate(85.590078, 192.777457)"><g><path d="M 8.25 0.5 L 1.78125 -18.578125 C 1.394531 -18.710938 1.015625 -18.851562 0.640625 -19 C 0.265625 -19.15625 -0.0820312 -19.34375 -0.40625 -19.5625 L -0.40625 -20.640625 L 8.171875 -20.640625 L 8.171875 -19.609375 C 7.785156 -19.390625 7.398438 -19.1875 7.015625 -19 C 6.628906 -18.820312 6.234375 -18.679688 5.828125 -18.578125 L 9.40625 -6.515625 L 9.953125 -3.546875 L 10.03125 -3.546875 L 10.65625 -6.609375 L 15.109375 -20.234375 L 16.34375 -20.640625 L 21.09375 -6.5625 L 21.84375 -3.546875 L 21.921875 -3.546875 L 22.546875 -6.5625 L 25.71875 -18.578125 C 25.414062 -18.628906 25.0625 -18.738281 24.65625 -18.90625 C 24.257812 -19.070312 23.859375 -19.289062 23.453125 -19.5625 L 23.453125 -20.640625 L 30.46875 -20.640625 L 30.46875 -19.5625 C 29.882812 -19.175781 29.097656 -18.847656 28.109375 -18.578125 L 22.25 0 L 20.0625 0.5 L 15.96875 -11.1875 L 15.1875 -14.609375 L 15.0625 -14.609375 L 14.125 -11.1875 L 10.40625 0 Z M 8.25 0.5 "/></g></g></g><g fill="#000000" fill-opacity="1"><g transform="translate(192.811016, 192.777457)"><g><path d="M 22.5 -26.671875 C 21.832031 -26.804688 21.210938 -26.960938 20.640625 -27.140625 C 20.066406 -27.316406 19.503906 -27.503906 18.953125 -27.703125 L 18.953125 -28.890625 L 28.234375 -28.890625 L 28.234375 -27.703125 C 27.441406 -27.265625 26.453125 -26.921875 25.265625 -26.671875 L 15.9375 0 L 13.671875 0.5 L 3.140625 -26.671875 C 2.585938 -26.804688 2.050781 -26.960938 1.53125 -27.140625 C 1.007812 -27.316406 0.5 -27.503906 0 -27.703125 L 0 -28.890625 L 10.9375 -28.890625 L 10.9375 -27.703125 C 10.46875 -27.503906 9.941406 -27.316406 9.359375 -27.140625 C 8.785156 -26.960938 8.179688 -26.804688 7.546875 -26.671875 L 14.609375 -7.796875 L 15.484375 -4.5 L 15.5625 -4.5 L 16.390625 -7.890625 Z M 22.5 -26.671875 "/></g></g></g><g fill="#000000" fill-opacity="1"><g transform="translate(221.044623, 192.777457)"><g><path d="M 18.40625 -2.890625 C 18.1875 -2.421875 17.84375 -1.976562 17.375 -1.5625 C 16.90625 -1.15625 16.367188 -0.800781 15.765625 -0.5 C 15.160156 -0.195312 14.5 0.0390625 13.78125 0.21875 C 13.070312 0.40625 12.34375 0.5 11.59375 0.5 C 9.976562 0.5 8.550781 0.242188 7.3125 -0.265625 C 6.070312 -0.773438 5.035156 -1.503906 4.203125 -2.453125 C 3.378906 -3.398438 2.753906 -4.535156 2.328125 -5.859375 C 1.898438 -7.179688 1.6875 -8.664062 1.6875 -10.3125 C 1.6875 -13.84375 2.5 -16.53125 4.125 -18.375 C 5.75 -20.21875 8.046875 -21.140625 11.015625 -21.140625 C 11.984375 -21.140625 12.9375 -21.007812 13.875 -20.75 C 14.8125 -20.488281 15.644531 -20.050781 16.375 -19.4375 C 17.101562 -18.832031 17.691406 -18.023438 18.140625 -17.015625 C 18.597656 -16.015625 18.828125 -14.773438 18.828125 -13.296875 C 18.828125 -12.828125 18.804688 -12.347656 18.765625 -11.859375 C 18.722656 -11.378906 18.644531 -10.863281 18.53125 -10.3125 L 5.65625 -10.3125 C 5.65625 -9.164062 5.796875 -8.085938 6.078125 -7.078125 C 6.367188 -6.078125 6.800781 -5.203125 7.375 -4.453125 C 7.957031 -3.710938 8.6875 -3.128906 9.5625 -2.703125 C 10.445312 -2.273438 11.484375 -2.0625 12.671875 -2.0625 C 13.640625 -2.0625 14.617188 -2.195312 15.609375 -2.46875 C 16.597656 -2.75 17.335938 -3.109375 17.828125 -3.546875 Z M 10.859375 -19.3125 C 9.285156 -19.3125 8.085938 -18.78125 7.265625 -17.71875 C 6.441406 -16.664062 5.945312 -14.804688 5.78125 -12.140625 L 14.859375 -12.140625 C 14.890625 -12.390625 14.910156 -12.628906 14.921875 -12.859375 C 14.929688 -13.085938 14.9375 -13.316406 14.9375 -13.546875 C 14.9375 -15.304688 14.609375 -16.707031 13.953125 -17.75 C 13.296875 -18.789062 12.265625 -19.3125 10.859375 -19.3125 Z M 10.859375 -19.3125 "/></g></g></g><g fill="#000000" fill-opacity="1"><g transform="translate(241.807052, 192.777457)"><g><path d="M 23.8125 0 L 14.9375 0 L 14.9375 -1.03125 C 15.6875 -1.414062 16.5 -1.742188 17.375 -2.015625 L 17.375 -11.8125 C 17.375 -13.894531 17.070312 -15.539062 16.46875 -16.75 C 15.863281 -17.96875 14.765625 -18.578125 13.171875 -18.578125 C 12.484375 -18.578125 11.84375 -18.453125 11.25 -18.203125 C 10.65625 -17.953125 10.128906 -17.613281 9.671875 -17.1875 C 9.222656 -16.757812 8.832031 -16.273438 8.5 -15.734375 C 8.175781 -15.203125 7.914062 -14.648438 7.71875 -14.078125 L 7.71875 -2.015625 C 8.570312 -1.859375 9.398438 -1.53125 10.203125 -1.03125 L 10.203125 0 L 1.28125 0 L 1.28125 -1.03125 C 1.96875 -1.382812 2.875 -1.710938 4 -2.015625 L 4 -18.25 L 1.28125 -18.578125 L 1.28125 -19.65625 C 2 -19.957031 2.820312 -20.226562 3.75 -20.46875 C 4.6875 -20.71875 5.664062 -20.941406 6.6875 -21.140625 L 7.71875 -21.140625 L 7.71875 -16.515625 L 7.765625 -16.515625 C 8.335938 -17.773438 9.164062 -18.859375 10.25 -19.765625 C 11.34375 -20.679688 12.660156 -21.140625 14.203125 -21.140625 C 15.304688 -21.140625 16.289062 -21.007812 17.15625 -20.75 C 18.019531 -20.488281 18.738281 -20.023438 19.3125 -19.359375 C 19.894531 -18.703125 20.335938 -17.816406 20.640625 -16.703125 C 20.941406 -15.585938 21.09375 -14.175781 21.09375 -12.46875 L 21.09375 -2.015625 C 22.195312 -1.828125 23.101562 -1.5 23.8125 -1.03125 Z M 23.8125 0 "/></g></g></g><g fill="#000000" fill-opacity="1"><g transform="translate(266.32571, 192.777457)"><g><path d="M 0.625 -19.65625 C 1.664062 -20.3125 2.765625 -20.773438 3.921875 -21.046875 L 3.921875 -24.5625 C 4.273438 -24.863281 4.691406 -25.128906 5.171875 -25.359375 C 5.660156 -25.597656 6.140625 -25.828125 6.609375 -26.046875 L 7.640625 -26.046875 L 7.640625 -20.640625 L 13.828125 -20.640625 L 13.828125 -18.578125 L 7.640625 -18.578125 L 7.640625 -6.609375 C 7.640625 -4.953125 7.898438 -3.78125 8.421875 -3.09375 C 8.941406 -2.40625 9.726562 -2.0625 10.78125 -2.0625 C 11.269531 -2.0625 11.882812 -2.09375 12.625 -2.15625 C 13.375 -2.226562 14.007812 -2.363281 14.53125 -2.5625 L 14.8125 -1.9375 C 14.59375 -1.6875 14.285156 -1.425781 13.890625 -1.15625 C 13.492188 -0.882812 13.039062 -0.625 12.53125 -0.375 C 12.019531 -0.125 11.460938 0.0820312 10.859375 0.25 C 10.253906 0.414062 9.632812 0.5 9 0.5 C 7.34375 0.5 6.082031 0.03125 5.21875 -0.90625 C 4.351562 -1.84375 3.921875 -3.359375 3.921875 -5.453125 L 3.921875 -18.578125 L 0.625 -18.578125 Z M 0.625 -19.65625 "/></g></g></g><g fill="#000000" fill-opacity="1"><g transform="translate(281.63955, 192.777457)"><g><path d="M 3.171875 -8.171875 C 3.171875 -9.910156 3.210938 -11.609375 3.296875 -13.265625 C 3.378906 -14.929688 3.421875 -16.59375 3.421875 -18.25 L 0.703125 -18.578125 L 0.703125 -19.65625 C 1.578125 -19.976562 2.472656 -20.265625 3.390625 -20.515625 C 4.316406 -20.765625 5.222656 -20.972656 6.109375 -21.140625 L 7.140625 -21.140625 C 7.140625 -19.078125 7.097656 -17.023438 7.015625 -14.984375 C 6.929688 -12.953125 6.890625 -10.929688 6.890625 -8.921875 C 6.890625 -7.847656 6.953125 -6.882812 7.078125 -6.03125 C 7.203125 -5.175781 7.421875 -4.457031 7.734375 -3.875 C 8.054688 -3.300781 8.488281 -2.851562 9.03125 -2.53125 C 9.582031 -2.21875 10.285156 -2.0625 11.140625 -2.0625 C 12.378906 -2.0625 13.414062 -2.507812 14.25 -3.40625 C 15.09375 -4.300781 15.75 -5.460938 16.21875 -6.890625 L 16.21875 -18.25 L 13.546875 -18.578125 L 13.546875 -19.65625 C 14.390625 -19.976562 15.269531 -20.265625 16.1875 -20.515625 C 17.113281 -20.765625 18.019531 -20.972656 18.90625 -21.140625 L 19.9375 -21.140625 L 19.9375 -2.359375 L 22.65625 -2.015625 L 22.65625 -1.15625 C 21.863281 -0.800781 21.0625 -0.484375 20.25 -0.203125 C 19.4375 0.0664062 18.585938 0.269531 17.703125 0.40625 L 16.671875 0.40625 L 16.390625 -4.5 L 16.21875 -4.5 C 16.082031 -3.914062 15.84375 -3.328125 15.5 -2.734375 C 15.15625 -2.148438 14.707031 -1.613281 14.15625 -1.125 C 13.601562 -0.644531 12.976562 -0.253906 12.28125 0.046875 C 11.582031 0.347656 10.816406 0.5 9.984375 0.5 C 8.890625 0.5 7.921875 0.367188 7.078125 0.109375 C 6.242188 -0.148438 5.535156 -0.609375 4.953125 -1.265625 C 4.378906 -1.929688 3.9375 -2.820312 3.625 -3.9375 C 3.320312 -5.050781 3.171875 -6.460938 3.171875 -8.171875 Z M 3.171875 -8.171875 "/></g></g></g><g fill="#000000" fill-opacity="1"><g transform="translate(305.332656, 192.777457)"><g><path d="M 10.078125 -17.546875 C 9.773438 -17.378906 9.394531 -17.039062 8.9375 -16.53125 C 8.476562 -16.019531 8.070312 -15.269531 7.71875 -14.28125 L 7.71875 -2.015625 C 8.269531 -1.960938 8.820312 -1.859375 9.375 -1.703125 C 9.925781 -1.554688 10.472656 -1.332031 11.015625 -1.03125 L 11.015625 0 L 1.28125 0 L 1.28125 -1.03125 C 1.769531 -1.300781 2.234375 -1.503906 2.671875 -1.640625 C 3.117188 -1.785156 3.5625 -1.910156 4 -2.015625 L 4 -18.25 L 1.28125 -18.578125 L 1.28125 -19.65625 C 2.15625 -20.039062 3.0625 -20.347656 4 -20.578125 C 4.9375 -20.804688 5.832031 -20.992188 6.6875 -21.140625 L 7.71875 -21.140625 L 7.71875 -16.765625 L 7.890625 -16.765625 C 8.128906 -17.304688 8.476562 -17.851562 8.9375 -18.40625 C 9.394531 -18.957031 9.914062 -19.453125 10.5 -19.890625 C 11.09375 -20.335938 11.738281 -20.675781 12.4375 -20.90625 C 13.144531 -21.144531 13.867188 -21.222656 14.609375 -21.140625 C 14.804688 -20.773438 14.976562 -20.378906 15.125 -19.953125 C 15.28125 -19.523438 15.425781 -19.082031 15.5625 -18.625 L 15.5625 -17.546875 Z M 10.078125 -17.546875 "/></g></g></g><g fill="#000000" fill-opacity="1"><g transform="translate(321.1831, 192.777457)"><g><path d="M 18.40625 -2.890625 C 18.1875 -2.421875 17.84375 -1.976562 17.375 -1.5625 C 16.90625 -1.15625 16.367188 -0.800781 15.765625 -0.5 C 15.160156 -0.195312 14.5 0.0390625 13.78125 0.21875 C 13.070312 0.40625 12.34375 0.5 11.59375 0.5 C 9.976562 0.5 8.550781 0.242188 7.3125 -0.265625 C 6.070312 -0.773438 5.035156 -1.503906 4.203125 -2.453125 C 3.378906 -3.398438 2.753906 -4.535156 2.328125 -5.859375 C 1.898438 -7.179688 1.6875 -8.664062 1.6875 -10.3125 C 1.6875 -13.84375 2.5 -16.53125 4.125 -18.375 C 5.75 -20.21875 8.046875 -21.140625 11.015625 -21.140625 C 11.984375 -21.140625 12.9375 -21.007812 13.875 -20.75 C 14.8125 -20.488281 15.644531 -20.050781 16.375 -19.4375 C 17.101562 -18.832031 17.691406 -18.023438 18.140625 -17.015625 C 18.597656 -16.015625 18.828125 -14.773438 18.828125 -13.296875 C 18.828125 -12.828125 18.804688 -12.347656 18.765625 -11.859375 C 18.722656 -11.378906 18.644531 -10.863281 18.53125 -10.3125 L 5.65625 -10.3125 C 5.65625 -9.164062 5.796875 -8.085938 6.078125 -7.078125 C 6.367188 -6.078125 6.800781 -5.203125 7.375 -4.453125 C 7.957031 -3.710938 8.6875 -3.128906 9.5625 -2.703125 C 10.445312 -2.273438 11.484375 -2.0625 12.671875 -2.0625 C 13.640625 -2.0625 14.617188 -2.195312 15.609375 -2.46875 C 16.597656 -2.75 17.335938 -3.109375 17.828125 -3.546875 Z M 10.859375 -19.3125 C 9.285156 -19.3125 8.085938 -18.78125 7.265625 -17.71875 C 6.441406 -16.664062 5.945312 -14.804688 5.78125 -12.140625 L 14.859375 -12.140625 C 14.890625 -12.390625 14.910156 -12.628906 14.921875 -12.859375 C 14.929688 -13.085938 14.9375 -13.316406 14.9375 -13.546875 C 14.9375 -15.304688 14.609375 -16.707031 13.953125 -17.75 C 13.296875 -18.789062 12.265625 -19.3125 10.859375 -19.3125 Z M 10.859375 -19.3125 "/></g></g></g><g fill="#000000" fill-opacity="1"><g transform="translate(118.430957, 234.447768)"><g><path d="M 8.984375 -10.46875 L 5.34375 -10.46875 L 5.34375 0 L 3.953125 0 L 3.953125 -10.46875 L 0.296875 -10.46875 L 0.296875 -11.71875 L 8.984375 -11.71875 Z M 8.984375 -10.46875 "/></g></g></g><g fill="#000000" fill-opacity="1"><g transform="translate(141.107929, 234.447768)"><g><path d="M 6.65625 0 L 6.65625 -4.765625 C 6.65625 -5.203125 6.628906 -5.582031 6.578125 -5.90625 C 6.535156 -6.238281 6.445312 -6.515625 6.3125 -6.734375 C 6.175781 -6.953125 5.992188 -7.113281 5.765625 -7.21875 C 5.535156 -7.332031 5.238281 -7.390625 4.875 -7.390625 C 4.34375 -7.390625 3.863281 -7.21875 3.4375 -6.875 C 3.019531 -6.539062 2.75 -6.109375 2.625 -5.578125 L 2.625 0 L 1.28125 0 L 1.28125 -11.71875 L 2.625 -11.71875 L 2.625 -7.4375 L 2.6875 -7.4375 C 2.976562 -7.78125 3.328125 -8.050781 3.734375 -8.25 C 4.140625 -8.457031 4.644531 -8.5625 5.25 -8.5625 C 5.71875 -8.5625 6.125 -8.507812 6.46875 -8.40625 C 6.820312 -8.300781 7.113281 -8.113281 7.34375 -7.84375 C 7.570312 -7.582031 7.738281 -7.222656 7.84375 -6.765625 C 7.945312 -6.316406 8 -5.742188 8 -5.046875 L 8 0 Z M 6.65625 0 "/></g></g></g><g fill="#000000" fill-opacity="1"><g transform="translate(163.651011, 234.447768)"><g><path d="M 7.390625 -0.671875 C 7.054688 -0.398438 6.632812 -0.1875 6.125 -0.03125 C 5.625 0.125 5.085938 0.203125 4.515625 0.203125 C 3.878906 0.203125 3.328125 0.0976562 2.859375 -0.109375 C 2.390625 -0.316406 2.003906 -0.613281 1.703125 -1 C 1.398438 -1.382812 1.175781 -1.84375 1.03125 -2.375 C 0.882812 -2.90625 0.8125 -3.507812 0.8125 -4.1875 C 0.8125 -5.613281 1.128906 -6.695312 1.765625 -7.4375 C 2.410156 -8.1875 3.320312 -8.5625 4.5 -8.5625 C 4.882812 -8.5625 5.265625 -8.519531 5.640625 -8.4375 C 6.015625 -8.351562 6.351562 -8.191406 6.65625 -7.953125 C 6.957031 -7.722656 7.203125 -7.394531 7.390625 -6.96875 C 7.585938 -6.539062 7.6875 -5.972656 7.6875 -5.265625 C 7.6875 -4.898438 7.648438 -4.492188 7.578125 -4.046875 L 2.203125 -4.046875 C 2.203125 -3.554688 2.253906 -3.117188 2.359375 -2.734375 C 2.460938 -2.359375 2.617188 -2.039062 2.828125 -1.78125 C 3.035156 -1.519531 3.3125 -1.316406 3.65625 -1.171875 C 4 -1.035156 4.414062 -0.96875 4.90625 -0.96875 C 5.28125 -0.96875 5.65625 -1.035156 6.03125 -1.171875 C 6.414062 -1.304688 6.703125 -1.460938 6.890625 -1.640625 Z M 4.515625 -7.390625 C 3.859375 -7.390625 3.332031 -7.21875 2.9375 -6.875 C 2.539062 -6.53125 2.300781 -5.941406 2.21875 -5.109375 L 6.375 -5.109375 C 6.375 -5.953125 6.210938 -6.539062 5.890625 -6.875 C 5.566406 -7.21875 5.109375 -7.390625 4.515625 -7.390625 Z M 4.515625 -7.390625 "/></g></g></g><g fill="#000000" fill-opacity="1"><g transform="translate(185.541399, 234.447768)"><g><path d="M 5.234375 -7.078125 C 4.898438 -7.191406 4.582031 -7.25 4.28125 -7.25 C 3.800781 -7.25 3.421875 -7.113281 3.140625 -6.84375 C 2.867188 -6.582031 2.695312 -6.253906 2.625 -5.859375 L 2.625 0 L 1.28125 0 L 1.28125 -8.359375 L 2.21875 -8.359375 L 2.484375 -7.34375 L 2.546875 -7.34375 C 2.753906 -7.726562 3.003906 -8.019531 3.296875 -8.21875 C 3.597656 -8.425781 3.976562 -8.53125 4.4375 -8.53125 C 4.757812 -8.53125 5.117188 -8.472656 5.515625 -8.359375 Z M 5.234375 -7.078125 "/></g></g></g><g fill="#000000" fill-opacity="1"><g transform="translate(204.620176, 234.447768)"><g><path d="M 1.15625 -7.75 C 1.582031 -8.007812 2.078125 -8.195312 2.640625 -8.3125 C 3.203125 -8.4375 3.789062 -8.5 4.40625 -8.5 C 4.976562 -8.5 5.441406 -8.421875 5.796875 -8.265625 C 6.148438 -8.109375 6.414062 -7.90625 6.59375 -7.65625 C 6.78125 -7.40625 6.90625 -7.128906 6.96875 -6.828125 C 7.03125 -6.523438 7.0625 -6.222656 7.0625 -5.921875 C 7.0625 -5.253906 7.046875 -4.601562 7.015625 -3.96875 C 6.984375 -3.332031 6.96875 -2.726562 6.96875 -2.15625 C 6.96875 -1.75 6.984375 -1.359375 7.015625 -0.984375 C 7.046875 -0.617188 7.109375 -0.28125 7.203125 0.03125 L 6.203125 0.03125 L 5.859375 -1.140625 L 5.765625 -1.140625 C 5.671875 -0.984375 5.546875 -0.828125 5.390625 -0.671875 C 5.242188 -0.523438 5.0625 -0.390625 4.84375 -0.265625 C 4.632812 -0.148438 4.390625 -0.0546875 4.109375 0.015625 C 3.835938 0.0976562 3.519531 0.140625 3.15625 0.140625 C 2.800781 0.140625 2.46875 0.0820312 2.15625 -0.03125 C 1.851562 -0.144531 1.585938 -0.300781 1.359375 -0.5 C 1.140625 -0.707031 0.96875 -0.957031 0.84375 -1.25 C 0.71875 -1.539062 0.65625 -1.875 0.65625 -2.25 C 0.65625 -2.738281 0.753906 -3.144531 0.953125 -3.46875 C 1.148438 -3.800781 1.429688 -4.0625 1.796875 -4.25 C 2.160156 -4.445312 2.59375 -4.585938 3.09375 -4.671875 C 3.601562 -4.753906 4.164062 -4.796875 4.78125 -4.796875 C 4.9375 -4.796875 5.085938 -4.796875 5.234375 -4.796875 C 5.390625 -4.796875 5.546875 -4.785156 5.703125 -4.765625 C 5.734375 -5.097656 5.75 -5.398438 5.75 -5.671875 C 5.75 -6.285156 5.625 -6.710938 5.375 -6.953125 C 5.132812 -7.203125 4.691406 -7.328125 4.046875 -7.328125 C 3.859375 -7.328125 3.65625 -7.3125 3.4375 -7.28125 C 3.21875 -7.257812 2.992188 -7.222656 2.765625 -7.171875 C 2.535156 -7.117188 2.316406 -7.054688 2.109375 -6.984375 C 1.910156 -6.910156 1.734375 -6.832031 1.578125 -6.75 Z M 3.53125 -1.03125 C 3.84375 -1.03125 4.117188 -1.070312 4.359375 -1.15625 C 4.609375 -1.238281 4.820312 -1.34375 5 -1.46875 C 5.175781 -1.601562 5.320312 -1.75 5.4375 -1.90625 C 5.5625 -2.0625 5.648438 -2.210938 5.703125 -2.359375 L 5.703125 -3.75 C 5.546875 -3.757812 5.382812 -3.765625 5.21875 -3.765625 C 5.0625 -3.773438 4.90625 -3.78125 4.75 -3.78125 C 4.40625 -3.78125 4.066406 -3.757812 3.734375 -3.71875 C 3.410156 -3.6875 3.125 -3.613281 2.875 -3.5 C 2.625 -3.394531 2.421875 -3.25 2.265625 -3.0625 C 2.117188 -2.882812 2.046875 -2.65625 2.046875 -2.375 C 2.046875 -1.988281 2.179688 -1.664062 2.453125 -1.40625 C 2.734375 -1.15625 3.09375 -1.03125 3.53125 -1.03125 Z M 3.53125 -1.03125 "/></g></g></g><g fill="#000000" fill-opacity="1"><g transform="translate(226.309743, 234.447768)"><g><path d="M 1.28125 -8.359375 L 2.203125 -8.359375 L 2.453125 -7.359375 L 2.53125 -7.359375 C 2.78125 -7.753906 3.109375 -8.050781 3.515625 -8.25 C 3.929688 -8.457031 4.398438 -8.5625 4.921875 -8.5625 C 6.035156 -8.5625 6.863281 -8.234375 7.40625 -7.578125 C 7.957031 -6.921875 8.234375 -5.84375 8.234375 -4.34375 C 8.234375 -3.644531 8.140625 -3.015625 7.953125 -2.453125 C 7.773438 -1.890625 7.515625 -1.410156 7.171875 -1.015625 C 6.835938 -0.628906 6.429688 -0.328125 5.953125 -0.109375 C 5.484375 0.0976562 4.960938 0.203125 4.390625 0.203125 C 3.972656 0.203125 3.644531 0.175781 3.40625 0.125 C 3.164062 0.0703125 2.90625 -0.015625 2.625 -0.140625 L 2.625 3.34375 L 1.28125 3.34375 Z M 4.671875 -7.390625 C 4.097656 -7.390625 3.644531 -7.242188 3.3125 -6.953125 C 2.988281 -6.660156 2.757812 -6.210938 2.625 -5.609375 L 2.625 -1.453125 C 2.820312 -1.296875 3.050781 -1.175781 3.3125 -1.09375 C 3.570312 -1.007812 3.910156 -0.96875 4.328125 -0.96875 C 5.097656 -0.96875 5.707031 -1.253906 6.15625 -1.828125 C 6.613281 -2.398438 6.84375 -3.25 6.84375 -4.375 C 6.84375 -4.820312 6.800781 -5.234375 6.71875 -5.609375 C 6.644531 -5.984375 6.519531 -6.300781 6.34375 -6.5625 C 6.175781 -6.832031 5.953125 -7.035156 5.671875 -7.171875 C 5.398438 -7.316406 5.066406 -7.390625 4.671875 -7.390625 Z M 4.671875 -7.390625 "/></g></g></g><g fill="#000000" fill-opacity="1"><g transform="translate(248.752415, 234.447768)"><g><path d="M 3.75 -2.9375 L 4.21875 -1.34375 L 4.296875 -1.34375 L 4.671875 -2.96875 L 6.296875 -8.359375 L 7.640625 -8.359375 L 5.171875 -0.859375 C 4.984375 -0.304688 4.796875 0.222656 4.609375 0.734375 C 4.421875 1.242188 4.21875 1.703125 4 2.109375 C 3.78125 2.515625 3.53125 2.835938 3.25 3.078125 C 2.96875 3.316406 2.644531 3.4375 2.28125 3.4375 C 1.875 3.4375 1.539062 3.378906 1.28125 3.265625 L 1.515625 2.109375 C 1.660156 2.160156 1.800781 2.1875 1.9375 2.1875 C 2.25 2.1875 2.550781 2.019531 2.84375 1.6875 C 3.132812 1.363281 3.375 0.800781 3.5625 0 L 0.203125 -8.359375 L 1.734375 -8.359375 Z M 3.75 -2.9375 "/></g></g></g></svg>