<svg xmlns="http://www.w3.org/2000/svg" xmlns:xlink="http://www.w3.org/1999/xlink" width="100" zoomAndPan="magnify" viewBox="0 0 75 44.999999" height="60" preserveAspectRatio="xMidYMid meet" version="1.0"><defs><clipPath id="108da9be47"><path d="M 28.402344 17.90625 L 53.667969 17.90625 L 53.667969 43.40625 L 28.402344 43.40625 Z M 28.402344 17.90625 " clip-rule="nonzero"/></clipPath><clipPath id="07330d80eb"><path d="M 30.300781 19.523438 L 51.769531 19.523438 L 51.769531 41.273438 L 30.300781 41.273438 Z M 30.300781 19.523438 " clip-rule="nonzero"/></clipPath><clipPath id="316cc5ca1c"><path d="M 18.628906 12.558594 L 44 12.558594 L 44 38 L 18.628906 38 Z M 18.628906 12.558594 " clip-rule="nonzero"/></clipPath><clipPath id="e25a8a7ece"><path d="M 20.078125 14.457031 L 41.828125 14.457031 L 41.828125 36.207031 L 20.078125 36.207031 Z M 20.078125 14.457031 " clip-rule="nonzero"/></clipPath><clipPath id="7810beced7"><path d="M 31.09375 1.820312 L 56.359375 1.820312 L 56.359375 27.320312 L 31.09375 27.320312 Z M 31.09375 1.820312 " clip-rule="nonzero"/></clipPath><clipPath id="b891ad2a5f"><path d="M 32.996094 3.4375 L 54.464844 3.4375 L 54.464844 25.1875 L 32.996094 25.1875 Z M 32.996094 3.4375 " clip-rule="nonzero"/></clipPath></defs><g clip-path="url(#108da9be47)"><path fill="#ffffff" d="M 41.035156 17.90625 C 48.011719 17.90625 53.667969 23.5625 53.667969 30.539062 L 53.667969 43.171875 L 41.035156 43.171875 C 34.058594 43.171875 28.402344 37.515625 28.402344 30.539062 C 28.402344 23.5625 34.058594 17.90625 41.035156 17.90625 " fill-opacity="1" fill-rule="nonzero"/></g><g clip-path="url(#07330d80eb)"><path fill="#6a4c93" d="M 41.035156 19.523438 C 47.121094 19.523438 52.050781 24.457031 52.050781 30.539062 L 52.050781 41.554688 L 41.039062 41.554688 C 34.953125 41.554688 30.023438 36.625 30.019531 30.539062 C 30.023438 24.457031 34.953125 19.523438 41.035156 19.523438 " fill-opacity="1" fill-rule="nonzero"/></g><g clip-path="url(#316cc5ca1c)"><path fill="#ffffff" d="M 31.265625 12.558594 C 24.285156 12.558594 18.632812 18.214844 18.628906 25.191406 L 18.632812 37.824219 L 31.261719 37.824219 C 38.242188 37.824219 43.894531 32.167969 43.894531 25.191406 C 43.894531 18.214844 38.242188 12.558594 31.265625 12.558594 " fill-opacity="1" fill-rule="nonzero"/></g><g clip-path="url(#e25a8a7ece)"><path fill="#ff595e" d="M 31.09375 14.457031 C 25.007812 14.457031 20.078125 19.390625 20.078125 25.472656 L 20.078125 36.488281 L 31.09375 36.488281 C 37.175781 36.488281 42.109375 31.554688 42.109375 25.472656 C 42.109375 19.390625 37.175781 14.457031 31.09375 14.457031 " fill-opacity="1" fill-rule="nonzero"/></g><g clip-path="url(#7810beced7)"><path fill="#ffffff" d="M 43.726562 1.820312 C 50.703125 1.820312 56.359375 7.476562 56.359375 14.453125 L 56.359375 27.085938 L 43.726562 27.085938 C 36.75 27.085938 31.09375 21.429688 31.09375 14.453125 C 31.09375 7.476562 36.75 1.820312 43.726562 1.820312 " fill-opacity="1" fill-rule="nonzero"/></g><g clip-path="url(#b891ad2a5f)"><path fill="#ffb703" d="M 43.730469 3.4375 C 49.8125 3.441406 54.746094 8.371094 54.746094 14.453125 L 54.746094 25.46875 L 43.730469 25.46875 C 37.644531 25.46875 32.714844 20.539062 32.714844 14.453125 C 32.714844 8.371094 37.644531 3.441406 43.730469 3.4375 " fill-opacity="1" fill-rule="nonzero"/></g></svg>